<svg width="97" height="80" viewBox="0 0 97 80" fill="none" xmlns="http://www.w3.org/2000/svg">
<g filter="url(#filter0_d)">
<path d="M82.781 60.5619V26.0476C81.8222 27.1262 80.7886 28.1149 79.6801 29.0137C71.6507 35.1855 65.2692 40.2488 60.5354 44.2036C59.0074 45.4919 57.7641 46.4955 56.8054 47.2146C55.8466 47.9336 54.5434 48.6677 52.8955 49.4167C51.2777 50.1357 49.7497 50.4952 48.3116 50.4952H48.2667H48.2217C46.7836 50.4952 45.2407 50.1357 43.5929 49.4167C41.975 48.6677 40.6867 47.9336 39.728 47.2146C38.7693 46.4955 37.5259 45.4919 35.9979 44.2036C31.2642 40.2488 24.8826 35.1855 16.8533 29.0137C15.7447 28.1149 14.7111 27.1262 13.7524 26.0476V60.5619C13.7524 60.9514 13.8872 61.2959 14.1568 61.5955C14.4564 61.8652 14.801 62 15.1905 62H81.3429C81.7324 62 82.0619 61.8652 82.3316 61.5955C82.6312 61.2959 82.781 60.9514 82.781 60.5619ZM82.781 13.3295C82.781 13.2695 82.781 13.1048 82.781 12.8351C82.781 12.5655 82.781 12.3707 82.781 12.2509C82.781 12.1011 82.766 11.9063 82.736 11.6667C82.736 11.397 82.6911 11.2023 82.6012 11.0824C82.5413 10.9626 82.4664 10.8278 82.3765 10.678C82.2866 10.5282 82.1518 10.4233 81.972 10.3634C81.7923 10.2735 81.5825 10.2286 81.3429 10.2286H15.1905C14.801 10.2286 14.4564 10.3784 14.1568 10.678C13.8872 10.9476 13.7524 11.2772 13.7524 11.6667C13.7524 16.7 15.9545 20.9544 20.3586 24.4298C26.141 28.9837 32.148 33.7324 38.3798 38.6759C38.5595 38.8257 39.0838 39.2751 39.9527 40.0241C40.8215 40.7432 41.5106 41.2974 42.0199 41.6869C42.5293 42.0764 43.1884 42.5558 43.9973 43.125C44.8362 43.6643 45.6002 44.0687 46.2893 44.3384C46.9784 44.608 47.6225 44.7429 48.2217 44.7429H48.2667H48.3116C48.9108 44.7429 49.555 44.608 50.2441 44.3384C50.9331 44.0687 51.6821 43.6643 52.4911 43.125C53.33 42.5558 54.0041 42.0764 54.5134 41.6869C55.0227 41.2974 55.7118 40.7432 56.5807 40.0241C57.4495 39.2751 57.9738 38.8257 58.1536 38.6759C64.3853 33.7324 70.3924 28.9837 76.1747 24.4298C77.7926 23.1415 79.2906 21.4187 80.6688 19.2616C82.0769 17.0745 82.781 15.0971 82.781 13.3295ZM88.5333 11.6667V60.5619C88.5333 62.5393 87.8293 64.232 86.4211 65.6402C85.013 67.0483 83.3202 67.7524 81.3429 67.7524H15.1905C13.2131 67.7524 11.5203 67.0483 10.1122 65.6402C8.70407 64.232 8 62.5393 8 60.5619V11.6667C8 9.68928 8.70407 7.99652 10.1122 6.58838C11.5203 5.18025 13.2131 4.47618 15.1905 4.47618H81.3429C83.3202 4.47618 85.013 5.18025 86.4211 6.58838C87.8293 7.99652 88.5333 9.68928 88.5333 11.6667Z" fill="white"/>
</g>
<defs>
<filter id="filter0_d" x="0" y="0.476196" width="96.5333" height="79.2762" filterUnits="userSpaceOnUse" color-interpolation-filters="sRGB">
<feFlood flood-opacity="0" result="BackgroundImageFix"/>
<feColorMatrix in="SourceAlpha" type="matrix" values="0 0 0 0 0 0 0 0 0 0 0 0 0 0 0 0 0 0 127 0"/>
<feOffset dy="4"/>
<feGaussianBlur stdDeviation="4"/>
<feColorMatrix type="matrix" values="0 0 0 0 0 0 0 0 0 0 0 0 0 0 0 0 0 0 0.15 0"/>
<feBlend mode="normal" in2="BackgroundImageFix" result="effect1_dropShadow"/>
<feBlend mode="normal" in="SourceGraphic" in2="effect1_dropShadow" result="shape"/>
</filter>
</defs>
</svg>
