<svg width="29" height="11" viewBox="0 0 29 11" fill="none" xmlns="http://www.w3.org/2000/svg">
<path d="M2.53517e-07 5.25947C2.53517e-07 5.25947 2.09476 -6.36065 16.7308 5.25947C16.7308 5.25947 3.02273 17.1116 2.53517e-07 5.25947ZM3.35707 5.30723C3.35707 5.61428 3.60954 5.86674 3.91659 5.86674C4.22363 5.86674 4.4761 5.61428 4.4761 5.30723C4.4761 5.00018 4.22363 4.74772 3.91658 4.74772C3.60271 4.75454 3.35707 5.00018 3.35707 5.30723ZM13.1144 5.29358C13.1144 5.29358 12.1592 1.80004 5.47913 5.29358C5.47913 5.29358 11.7361 8.85535 13.1144 5.29358Z" fill="#F2D97A"/>
<path d="M17.8225 6.8493C18.6686 6.8493 19.3578 6.16015 19.3578 5.31406C19.3578 4.46796 18.6686 3.77881 17.8225 3.77881C16.9764 3.77881 16.2873 4.46796 16.2873 5.31406C16.2805 6.16015 16.9696 6.8493 17.8225 6.8493Z" fill="#F2D97A"/>
<path d="M23.7452 9.38069C23.7452 9.38069 18.4639 5.32763 18.5117 5.30716C18.4639 5.28669 23.7452 1.23364 23.7452 1.23364C24.3661 2.56419 29.0059 5.30034 28.9991 5.30716C29.0742 5.35493 24.3661 8.05696 23.7452 9.38069Z" fill="#F2D97A"/>
</svg>
