<svg width="24" height="20" viewBox="0 0 24 20" fill="none" xmlns="http://www.w3.org/2000/svg">
<path d="M22.2857 17.5714C22.2857 17.7991 22.0848 18 21.8571 18H2.14286C1.91518 18 1.71429 17.7991 1.71429 17.5714V7.28571C1.99554 7.60714 2.30357 7.90179 2.63839 8.16964C4.55357 9.64286 6.48214 11.1429 8.34375 12.6964C9.34821 13.5402 10.5938 14.5714 11.9866 14.5714H12H12.0134C13.4062 14.5714 14.6518 13.5402 15.6562 12.6964C17.5179 11.1429 19.4464 9.64286 21.3616 8.16964C21.6964 7.90179 22.0045 7.60714 22.2857 7.28571V17.5714ZM22.2857 3.49553C22.2857 4.63393 21.1875 6.12053 20.317 6.80357C18.5223 8.20982 16.7277 9.62946 14.9464 11.0491C14.2366 11.625 12.9509 12.8571 12.0134 12.8571H12H11.9866C11.0491 12.8571 9.76339 11.625 9.05357 11.0491C7.27232 9.62946 5.47768 8.20982 3.68304 6.80357C2.47768 5.85268 1.71429 4.52678 1.71429 3C1.71429 2.77232 1.91518 2.57143 2.14286 2.57143H21.8571C22.3661 2.57143 22.2857 3.16071 22.2857 3.49553ZM24 3C24 1.82143 23.0357 0.857142 21.8571 0.857142H2.14286C0.964286 0.857142 0 1.82143 0 3V17.5714C0 18.75 0.964286 19.7143 2.14286 19.7143H21.8571C23.0357 19.7143 24 18.75 24 17.5714V3Z" fill="#BFBFBF"/>
</svg>
