<svg width="260" height="45" viewBox="0 0 260 45" fill="none" xmlns="http://www.w3.org/2000/svg">
<path d="M141.897 29.8423C142.141 29.9477 142.319 30.1551 142.411 30.4843C142.496 30.8069 142.467 31.2513 142.243 31.7549C142.019 32.2553 141.558 32.7952 140.893 33.177C140.232 33.5655 139.385 33.7564 138.556 33.6971C138.138 33.6807 137.614 33.5589 137.058 33.3383C136.502 33.1145 135.929 32.7721 135.412 32.3244C134.895 31.88 134.434 31.3369 134.069 30.7476C133.704 30.1584 133.43 29.5263 133.249 28.9107C133.075 28.2886 132.983 27.6862 132.95 27.1397C132.94 26.8665 132.937 26.6064 132.947 26.3661C132.963 26.1225 132.976 25.8987 133.006 25.6978C133.039 25.4937 133.072 25.3127 133.105 25.1514C133.141 24.9901 133.187 24.8551 133.223 24.7432C133.302 24.5194 133.374 24.4008 133.437 24.4008C133.49 24.4008 133.565 24.5226 133.651 24.73C133.743 24.9638 133.855 25.2534 133.983 25.5859C134.053 25.7604 134.138 25.9447 134.221 26.139C134.313 26.3332 134.411 26.534 134.513 26.7381C134.734 27.143 134.994 27.5545 135.29 27.9363C135.593 28.3116 135.929 28.654 136.281 28.9272C136.63 29.2037 136.992 29.4144 137.331 29.5592C137.667 29.7074 137.977 29.7831 138.227 29.8193C138.289 29.8358 138.349 29.8325 138.405 29.8423C138.46 29.8489 138.513 29.8588 138.559 29.8555C138.609 29.8588 138.651 29.8621 138.694 29.8687C138.734 29.8687 138.773 29.8687 138.806 29.872C139.083 29.8917 139.306 29.9082 139.53 29.9181C139.754 29.9279 139.998 29.9345 140.264 29.8983C140.804 29.8325 141.407 29.6251 141.897 29.8423Z" fill="url(#paint0_linear)"/>
<path d="M133.579 34.2896C132.091 30.9121 131.689 26.1718 131.643 25.5463C131.64 25.5068 131.617 25.4772 131.59 25.4772L130.139 23.8312C129.948 23.614 129.605 23.614 129.414 23.8312L127.963 25.4772C127.936 25.4772 127.913 25.5068 127.91 25.5463C127.864 26.1718 127.525 30.5467 125.974 34.2896C125.961 34.3192 128.967 39.6883 129.645 40.8108C129.714 40.9228 129.846 40.9228 129.915 40.8108C130.586 39.6883 133.592 34.3192 133.579 34.2896Z" fill="url(#paint1_linear)"/>
<path d="M117.461 29.8423C117.218 29.9477 117.04 30.1551 116.948 30.4843C116.862 30.8069 116.892 31.2513 117.116 31.7549C117.34 32.2553 117.801 32.7952 118.466 33.177C119.127 33.5655 119.973 33.7564 120.803 33.6971C121.221 33.6807 121.744 33.5589 122.301 33.3383C122.857 33.1145 123.43 32.7721 123.947 32.3244C124.463 31.88 124.924 31.3369 125.29 30.7476C125.655 30.1584 125.925 29.5263 126.109 28.9107C126.284 28.2886 126.376 27.6862 126.409 27.1397C126.419 26.8665 126.422 26.6064 126.412 26.3661C126.396 26.1225 126.383 25.8987 126.353 25.6978C126.32 25.4937 126.287 25.3127 126.254 25.1514C126.218 24.9901 126.172 24.8551 126.136 24.7432C126.057 24.5194 125.984 24.4008 125.922 24.4008C125.869 24.4008 125.793 24.5226 125.708 24.73C125.616 24.9638 125.504 25.2534 125.375 25.5859C125.306 25.7604 125.22 25.9447 125.138 26.139C125.046 26.3332 124.947 26.534 124.845 26.7381C124.625 27.143 124.365 27.5545 124.068 27.9363C123.765 28.3116 123.43 28.654 123.077 28.9272C122.729 29.2037 122.366 29.4144 122.027 29.5592C121.692 29.7074 121.382 29.7831 121.132 29.8193C121.069 29.8358 121.01 29.8325 120.954 29.8423C120.898 29.8489 120.846 29.8588 120.796 29.8555C120.747 29.8588 120.704 29.8621 120.661 29.8687C120.622 29.8687 120.582 29.8687 120.549 29.872C120.273 29.8917 120.049 29.9082 119.825 29.9181C119.604 29.9279 119.358 29.9345 119.091 29.8983C118.554 29.8325 117.952 29.6251 117.461 29.8423Z" fill="url(#paint2_linear)"/>
<path d="M129.744 22.5244C129.744 22.5244 127.034 16.7768 129.744 16.7669C132.509 16.7571 129.905 22.8701 129.744 22.5244Z" fill="url(#paint3_linear)"/>
<path d="M131.218 22.5112C131.218 22.5112 133.029 18.1067 134.402 19.5979C135.807 21.122 131.106 22.7746 131.218 22.5112Z" fill="url(#paint4_linear)"/>
<path d="M128.275 22.3433C128.275 22.3433 123.575 21.5664 124.723 19.8941C125.895 18.1824 128.555 22.3927 128.275 22.3433Z" fill="url(#paint5_linear)"/>
<path d="M237.254 33.4897C236.967 34.7274 236.513 35.8632 235.96 36.8573C235.407 37.8515 234.762 38.7041 234.103 39.4316C233.451 40.169 232.707 40.7977 231.95 41.3804C231.756 41.5186 231.562 41.6569 231.368 41.7984C231.272 41.8676 231.17 41.9334 231.065 41.9992L230.752 42.1935C230.545 42.3284 230.331 42.4371 230.117 42.5523L229.794 42.7202L229.465 42.8683C228.593 43.2699 227.694 43.5728 226.789 43.7867C225.887 44.0007 224.981 44.1521 224.079 44.2246C222.279 44.3727 220.511 44.2739 218.816 43.981C217.97 43.8328 217.137 43.6452 216.33 43.395C215.925 43.2831 215.53 43.1382 215.135 43C214.938 42.9309 214.747 42.8486 214.553 42.7728C214.358 42.6971 214.167 42.6214 213.98 42.5325C213.792 42.4469 213.605 42.3614 213.417 42.2791C213.233 42.1902 213.052 42.0947 212.867 42.0025L212.594 41.8643L212.327 41.7129C212.15 41.6108 211.975 41.5088 211.801 41.41C211.629 41.3014 211.462 41.1927 211.29 41.0808L211.037 40.9162L210.793 40.7384C210.632 40.6199 210.471 40.5014 210.309 40.3862C210.155 40.2611 210 40.136 209.845 40.0109C209.69 39.8891 209.542 39.7575 209.398 39.6225C209.253 39.4875 209.105 39.3591 208.966 39.2209C208.696 38.9345 208.413 38.6678 208.17 38.365C207.653 37.7856 207.225 37.1437 206.833 36.4985C206.744 36.3306 206.655 36.166 206.566 36.0014L206.435 35.7545L206.32 35.4978C206.244 35.3266 206.168 35.1554 206.096 34.9875C206.033 34.813 205.974 34.6386 205.911 34.4641L205.823 34.204C205.796 34.1152 205.776 34.0263 205.75 33.9374C205.704 33.7596 205.658 33.5852 205.615 33.4074C205.579 33.2296 205.553 33.0519 205.52 32.8741L205.474 32.6108C205.464 32.5219 205.457 32.433 205.447 32.3441C205.431 32.1664 205.418 31.9919 205.401 31.8141C205.398 31.6364 205.398 31.4619 205.395 31.2874V31.0274L205.414 30.7673C205.427 30.5961 205.441 30.4249 205.454 30.2538C205.48 30.0859 205.506 29.918 205.533 29.7501C205.546 29.6678 205.559 29.5855 205.572 29.5032L205.628 29.2596C205.668 29.0983 205.704 28.937 205.747 28.779C205.796 28.6243 205.846 28.4663 205.898 28.3148C205.925 28.2391 205.948 28.1601 205.974 28.0844L206.066 27.8606C206.129 27.7124 206.188 27.5676 206.247 27.4194C206.32 27.2779 206.389 27.1396 206.458 27.0014L206.563 26.794C206.603 26.7281 206.642 26.6623 206.682 26.5965C206.761 26.4648 206.84 26.3364 206.919 26.2047C207.001 26.0796 207.093 25.9578 207.179 25.836C207.347 25.5891 207.541 25.3686 207.729 25.148C208.489 24.2724 209.384 23.6173 210.283 23.1498C211.185 22.6824 212.107 22.4158 212.963 22.3071C213.819 22.1985 214.612 22.2215 215.297 22.3532C215.382 22.3664 215.468 22.3796 215.55 22.396C215.632 22.4158 215.715 22.4355 215.794 22.4553C215.952 22.4948 216.106 22.5343 216.255 22.5738C216.544 22.6758 216.817 22.7647 217.061 22.8668C217.295 22.9787 217.515 23.0807 217.719 23.1795C217.792 23.2223 217.861 23.2651 217.93 23.3046C219.441 23.5646 220.59 24.8781 220.59 26.4615C220.59 28.2325 219.155 29.6678 217.384 29.6678C215.613 29.6678 214.177 28.2325 214.177 26.4615C214.177 25.0723 215.063 23.8938 216.297 23.4494C216.218 23.433 216.143 23.4198 216.064 23.4C215.925 23.3836 215.784 23.3671 215.639 23.3474C215.567 23.3375 215.491 23.3276 215.418 23.3177C215.343 23.3112 215.267 23.3112 215.188 23.3079C214.572 23.2585 213.884 23.3112 213.163 23.4659C212.443 23.6239 211.685 23.9103 210.958 24.3547C210.234 24.8024 209.523 25.3916 208.933 26.1586C208.792 26.3529 208.637 26.5405 208.512 26.7545C208.446 26.8598 208.377 26.9619 208.314 27.0705C208.255 27.1791 208.196 27.2911 208.137 27.403C208.107 27.4589 208.074 27.5149 208.048 27.5709L207.972 27.7453C207.919 27.8606 207.867 27.9791 207.814 28.0976C207.771 28.2194 207.729 28.3412 207.682 28.4663L207.617 28.6506C207.597 28.7132 207.58 28.779 207.564 28.8415C207.528 28.9699 207.495 29.0983 207.459 29.2267C207.432 29.3584 207.409 29.49 207.383 29.6217L207.343 29.8192C207.333 29.8851 207.327 29.9542 207.32 30.0233C207.304 30.1583 207.291 30.2933 207.274 30.4315C207.271 30.5698 207.264 30.708 207.261 30.8463L207.255 31.0537L207.264 31.2644C207.271 31.4059 207.278 31.5442 207.284 31.6857C207.304 31.8273 207.32 31.9688 207.34 32.1104C207.35 32.1828 207.357 32.2519 207.37 32.3244L207.416 32.535C207.445 32.6766 207.475 32.8182 207.508 32.9597C207.551 33.1013 207.594 33.2395 207.636 33.3811C207.659 33.4502 207.676 33.5226 207.702 33.5917L207.784 33.7991C207.837 33.9374 207.893 34.0789 207.949 34.2172C208.015 34.3522 208.081 34.4904 208.147 34.6287L208.245 34.8361L208.361 35.0369C208.44 35.1719 208.515 35.3068 208.594 35.4418C209.931 37.5684 212.176 39.3361 214.882 40.4422C215.046 40.5179 215.221 40.5804 215.392 40.643C215.567 40.7055 215.734 40.778 215.912 40.8339C216.264 40.9491 216.617 41.0709 216.982 41.1664C217.703 41.3738 218.45 41.5318 219.207 41.6536C220.725 41.8939 222.302 41.9597 223.875 41.8149C224.662 41.7458 225.446 41.6042 226.216 41.4166C226.986 41.2289 227.737 40.9656 228.451 40.6364L228.721 40.5146L228.981 40.3763C229.152 40.2842 229.33 40.1953 229.491 40.0867L229.741 39.9319C229.824 39.8826 229.909 39.8299 229.988 39.7673C230.153 39.6488 230.318 39.5303 230.485 39.4085C231.127 38.9114 231.756 38.3815 232.293 37.7725C232.836 37.17 233.369 36.4722 233.82 35.6623C234.274 34.8558 234.646 33.9374 234.887 32.9235C235.127 31.9129 235.236 30.8101 235.183 29.6546C235.18 29.365 235.14 29.0753 235.114 28.779C235.084 28.486 235.025 28.1897 234.982 27.8902C234.86 27.2976 234.722 26.6919 234.515 26.0895C234.327 25.4838 234.07 24.888 233.797 24.2889C233.501 23.6996 233.191 23.1038 232.813 22.5343C232.451 21.9549 232.029 21.4051 231.582 20.8587C231.348 20.5953 231.124 20.3221 230.871 20.0686C230.745 19.9403 230.627 19.8086 230.495 19.6835C230.364 19.5617 230.232 19.4366 230.1 19.3148C229.972 19.1864 229.834 19.0712 229.692 18.9527C229.554 18.8342 229.419 18.7157 229.274 18.5972C228.974 18.3634 228.672 18.1297 228.369 17.896C228.217 17.7808 228.066 17.6557 227.911 17.5438C227.753 17.4318 227.595 17.3232 227.437 17.2113C227.279 17.0994 227.121 16.9874 226.963 16.8755C226.805 16.7636 226.647 16.6484 226.479 16.5496C226.15 16.3422 225.821 16.1315 225.488 15.9208C225.153 15.7168 224.804 15.5324 224.461 15.3382C224.119 15.1341 223.76 14.9695 223.401 14.7917C223.223 14.7029 223.042 14.6173 222.861 14.5284C222.684 14.4395 222.493 14.3704 222.308 14.2914C222.124 14.2124 221.936 14.1366 221.752 14.0576C221.568 13.9786 221.38 13.8996 221.186 13.8371C220.804 13.7021 220.419 13.5671 220.034 13.4322C219.639 13.317 219.244 13.2017 218.849 13.0865C218.651 13.024 218.447 12.9812 218.246 12.9351C218.045 12.889 217.841 12.8396 217.637 12.7935C216.004 12.4347 214.316 12.1813 212.587 12.0298C212.156 11.987 211.718 11.964 211.284 11.9311L210.629 11.885L209.97 11.8554C209.529 11.8356 209.088 11.8192 208.647 11.7994C208.203 11.7895 207.758 11.7797 207.314 11.7698C206.869 11.7566 206.422 11.7533 205.974 11.7533C205.526 11.75 205.079 11.75 204.628 11.7467C204.183 11.7566 203.739 11.7665 203.294 11.7764L202.626 11.7928C202.402 11.7994 202.182 11.8192 201.958 11.8323C201.513 11.8619 201.066 11.8916 200.621 11.9179C200.177 11.9508 199.729 12.0068 199.285 12.0496C198.393 12.1286 197.501 12.2701 196.608 12.3887C196.161 12.4479 195.72 12.5335 195.275 12.6059C194.831 12.6849 194.386 12.7475 193.942 12.8429C193.057 13.0207 192.168 13.1853 191.289 13.3927C189.524 13.7745 187.773 14.2354 186.035 14.6963C184.3 15.1769 182.572 15.6707 180.867 16.1875C179.158 16.6977 177.463 17.2212 175.784 17.7347C174.108 18.2482 172.433 18.7453 170.8 19.2325C167.531 20.2168 164.351 21.2175 161.254 22.024C159.706 22.4322 158.176 22.7779 156.678 23.0708C155.177 23.3638 153.699 23.5679 152.263 23.7194C149.383 23.9794 146.647 23.9169 144.198 23.479C142.974 23.2618 141.815 22.9622 140.758 22.5409C139.705 22.1195 138.753 21.5697 138.016 20.862C137.647 20.5098 137.331 20.1213 137.098 19.7032C136.864 19.2852 136.706 18.8506 136.607 18.4227C136.587 18.3141 136.568 18.2087 136.548 18.1034C136.528 17.998 136.525 17.8927 136.515 17.7874C136.492 17.58 136.492 17.3726 136.502 17.1718C136.525 16.7702 136.601 16.3982 136.709 16.0558C136.926 15.3711 137.269 14.8115 137.664 14.4197C138.056 14.0247 138.503 13.8075 138.879 13.7449C139.254 13.6758 139.547 13.7285 139.731 13.7745C139.827 13.7976 139.892 13.8239 139.939 13.8404C139.985 13.8568 140.004 13.87 140.004 13.8733C140.001 13.8865 139.906 13.8568 139.721 13.8305C139.537 13.8042 139.254 13.7778 138.905 13.8634C138.559 13.9457 138.154 14.1663 137.805 14.5547C137.453 14.9399 137.15 15.4797 136.973 16.1315C136.884 16.4574 136.828 16.813 136.818 17.1849C136.815 17.3726 136.821 17.5602 136.851 17.7544C136.864 17.8499 136.867 17.9519 136.894 18.0474C136.913 18.1462 136.936 18.2416 136.956 18.3437C137.061 18.7354 137.219 19.1304 137.443 19.5024C137.67 19.8777 137.97 20.2234 138.319 20.5394C139.023 21.1714 139.932 21.6685 140.952 22.0438C141.973 22.4158 143.102 22.6791 144.3 22.8602C146.7 23.2223 149.367 23.219 152.178 22.8997C153.583 22.7186 155.025 22.4849 156.497 22.1623C157.965 21.8397 159.466 21.4644 160.987 21.0266C164.035 20.1641 167.172 19.1008 170.435 18.0474C172.071 17.524 173.713 17.0006 175.379 16.4508C177.045 15.9077 178.73 15.3514 180.439 14.8049C182.144 14.2552 183.872 13.7252 185.617 13.2083C187.368 12.708 189.129 12.2109 190.92 11.7895C191.812 11.5624 192.714 11.378 193.616 11.1805C194.064 11.0785 194.521 11.0061 194.976 10.9139C195.43 10.8316 195.881 10.7361 196.339 10.667C197.254 10.5287 198.162 10.3674 199.084 10.272C199.545 10.2193 200.002 10.1567 200.463 10.114C200.924 10.0777 201.385 10.0382 201.846 10.002C202.076 9.98557 202.307 9.95923 202.537 9.94936L203.228 9.91973C203.689 9.89998 204.15 9.88351 204.611 9.86377C205.065 9.85718 205.52 9.85389 205.974 9.84731C206.428 9.84072 206.879 9.83743 207.334 9.84401C207.788 9.84731 208.239 9.85059 208.693 9.85059C209.147 9.86376 209.598 9.87364 210.049 9.88681L210.724 9.90656L211.399 9.94276C211.85 9.9691 212.298 9.98556 212.749 10.0251C214.543 10.1534 216.33 10.3905 218.075 10.7526C218.292 10.802 218.509 10.848 218.727 10.8974C218.944 10.9468 219.161 10.9896 219.375 11.0521C219.803 11.1706 220.231 11.2892 220.659 11.4044C221.08 11.5459 221.499 11.6842 221.913 11.8257C222.124 11.8916 222.328 11.9739 222.529 12.0562C222.733 12.1385 222.934 12.2208 223.138 12.2998C223.339 12.3854 223.546 12.4578 223.74 12.55C223.938 12.6421 224.132 12.7343 224.33 12.8265C224.721 13.0108 225.113 13.1886 225.485 13.4026C225.86 13.6099 226.239 13.8042 226.604 14.0181C226.963 14.2387 227.322 14.4593 227.681 14.6798C227.862 14.7851 228.033 14.907 228.204 15.0222C228.375 15.1407 228.546 15.2559 228.718 15.3744C228.889 15.4929 229.057 15.6081 229.228 15.7233C229.396 15.8386 229.554 15.9669 229.718 16.0887C230.044 16.3323 230.367 16.5792 230.686 16.8195C230.848 16.9446 231.006 17.0829 231.167 17.2146C231.325 17.3462 231.486 17.4779 231.634 17.6195C231.786 17.7577 231.937 17.896 232.089 18.0343C232.237 18.1758 232.378 18.3239 232.52 18.4655C232.809 18.7486 233.073 19.058 233.339 19.3543C233.856 19.9666 234.344 20.5921 234.765 21.2504C235.203 21.8989 235.571 22.5771 235.914 23.2519C236.236 23.9399 236.539 24.6246 236.766 25.3291C237.728 28.1305 237.83 31.0142 237.254 33.4897Z" fill="url(#paint6_linear)"/>
<path d="M156.642 14.6698C156.605 14.7916 156.684 14.9365 156.882 15.1044C156.981 15.19 157.109 15.2821 157.264 15.3776C157.343 15.4237 157.428 15.4796 157.521 15.5257C157.616 15.5685 157.718 15.608 157.827 15.6508C158.692 16.0294 160.059 16.2697 161.718 16.2006C163.38 16.1347 165.293 15.7035 167.288 15.0155C168.282 14.6633 169.299 14.2485 170.326 13.7876C171.35 13.3235 172.377 12.8165 173.414 12.2997C177.595 10.2719 186.558 5.04434 195.45 3.03299C199.874 1.99275 204.17 1.60759 207.334 1.47592C208.124 1.44958 208.844 1.40679 209.483 1.39362C210.118 1.39033 210.671 1.38375 211.122 1.37058C212.028 1.34754 212.538 1.30803 212.545 1.25207C212.548 1.20269 212.051 1.10394 211.149 0.968973C210.698 0.899843 210.148 0.824125 209.513 0.738536C208.874 0.662823 208.15 0.613445 207.35 0.544315C204.157 0.294131 199.736 0.248039 195.048 0.929461C192.714 1.29486 190.318 1.79852 188.003 2.46349C187.421 2.6215 186.858 2.81243 186.288 2.9869C186.005 3.07578 185.722 3.16467 185.439 3.25355C185.159 3.34901 184.883 3.44776 184.61 3.54323C184.057 3.73745 183.513 3.93167 182.977 4.1226C182.443 4.32999 181.92 4.5308 181.407 4.73161C180.89 4.92912 180.386 5.13322 179.899 5.34061C179.408 5.548 178.928 5.7488 178.46 5.94302C177.535 6.35122 176.656 6.73967 175.84 7.11165C174.214 7.8622 172.834 8.52058 171.794 9.04399C170.774 9.56411 169.78 10.0711 168.795 10.5714C167.841 11.052 166.925 11.4965 166.053 11.9014C164.305 12.6881 162.712 13.3004 161.352 13.6526C159.993 14.0115 158.864 14.1793 158.051 14.2518L157.758 14.2946L157.501 14.3209C157.339 14.3407 157.198 14.3637 157.076 14.3966C156.826 14.4592 156.678 14.548 156.642 14.6698Z" fill="url(#paint7_linear)"/>
<path d="M247.383 32.3736C247.712 32.0938 247.705 31.4815 247.435 30.7047C247.165 29.9278 246.632 28.983 245.872 28.0514C245.115 27.1297 243.163 25.1973 241.174 23.7357C240.187 23.0016 239.192 22.4025 238.425 22.0404C238.047 21.8527 237.721 21.7309 237.487 21.6585C237.254 21.5861 237.115 21.5664 237.089 21.6091C237.066 21.6454 237.142 21.7672 237.296 21.9482C237.451 22.1293 237.682 22.3729 237.948 22.6823C238.491 23.2847 239.196 24.1209 239.894 25.0525C241.296 26.9025 242.708 29.1147 243.459 30.0265C244.203 30.9384 245.013 31.6692 245.73 32.1004C246.441 32.5284 247.054 32.6502 247.383 32.3736Z" fill="url(#paint8_linear)"/>
<path d="M259.55 22.5078C259.536 21.4248 257.245 20.6216 254.533 20.5327C253.167 20.4899 250.141 20.6808 247.439 20.4636C246.086 20.3648 244.808 20.187 243.864 20.0159C243.386 19.9467 242.998 19.8611 242.715 19.8315C242.432 19.7986 242.261 19.8019 242.231 19.8578C242.208 19.9072 242.316 20.0323 242.53 20.2233C242.748 20.4109 243.067 20.6742 243.488 20.9409C244.318 21.5071 245.539 22.1523 246.909 22.6922C248.278 23.2386 249.792 23.6732 251.139 23.9563C252.485 24.2427 253.664 24.3941 254.385 24.4171C255.833 24.4698 257.133 24.2558 258.058 23.897C258.993 23.5382 259.556 23.0444 259.55 22.5078Z" fill="url(#paint9_linear)"/>
<path d="M237.609 15.9143C237.609 15.9143 237.069 15.4436 236.134 14.6305C235.17 13.8174 233.728 12.6948 231.842 11.4373C229.939 10.2094 227.589 8.8466 224.817 7.64835C222.045 6.45339 218.852 5.42962 215.395 4.83708C211.939 4.24125 208.565 4.16224 205.543 4.47167C205.355 4.48813 205.164 4.49801 204.98 4.52105C204.795 4.54739 204.611 4.57372 204.427 4.60335C204.061 4.65931 203.703 4.71199 203.347 4.76466C202.992 4.82391 202.643 4.86012 202.3 4.93913C201.961 5.01484 201.629 5.09056 201.296 5.16627C200.641 5.32099 200.009 5.44278 199.4 5.64359C199.094 5.72918 198.804 5.83123 198.521 5.93328C198.238 6.03203 197.961 6.1308 197.698 6.23614C196.635 6.64762 195.713 7.0624 194.893 7.40146C194.485 7.57593 194.103 7.73065 193.751 7.86562C193.399 8.01046 193.073 8.1191 192.78 8.22115C192.632 8.27382 192.494 8.32319 192.362 8.36928C192.224 8.41536 192.099 8.46804 191.987 8.52071C191.763 8.63264 191.605 8.72809 191.44 8.74784C191.286 8.77089 191.16 8.75443 191.078 8.74126C190.996 8.7281 190.953 8.72481 190.953 8.72481C190.953 8.72481 190.996 8.74127 191.075 8.7676C191.154 8.79723 191.279 8.84003 191.45 8.8499C191.621 8.86636 191.845 8.79064 192.066 8.72809C192.29 8.66555 192.556 8.63921 192.872 8.58325C193.185 8.53387 193.534 8.48121 193.909 8.39562C194.288 8.31991 194.696 8.22773 195.13 8.1191C196.003 7.91171 196.984 7.63519 198.057 7.37842C198.327 7.30929 198.6 7.25004 198.88 7.19078C199.16 7.12824 199.446 7.06898 199.736 7.02289C200.309 6.90768 200.937 6.8583 201.576 6.7793C201.895 6.73979 202.221 6.70358 202.55 6.66408C202.88 6.61799 203.219 6.618 203.561 6.59495C203.903 6.5752 204.249 6.55216 204.601 6.5324C204.776 6.52253 204.953 6.50936 205.131 6.49948C205.309 6.4929 205.49 6.49619 205.668 6.49619C208.552 6.42377 211.718 6.64103 214.99 7.20724C218.266 7.77015 221.341 8.59971 224.086 9.54449C226.831 10.4926 229.241 11.5493 231.249 12.4907C233.241 13.4618 234.831 14.3243 235.917 14.9465C236.99 15.5555 237.609 15.9143 237.609 15.9143Z" fill="url(#paint10_linear)"/>
<path d="M249.118 11.5196C248.202 10.9732 246.879 11.3946 245.836 12.4183C245.575 12.6751 245.21 13.1524 244.772 13.6791C244.334 14.2091 243.821 14.7852 243.301 15.2263C242.781 15.6707 242.264 15.9571 241.796 16.0131C241.326 16.0822 240.934 15.9374 240.852 16.0394C240.815 16.0789 240.835 16.1875 240.924 16.362C241.016 16.5299 241.194 16.7538 241.494 16.9611C241.79 17.1718 242.214 17.3265 242.685 17.3891C243.156 17.4549 243.666 17.4286 244.163 17.343C245.161 17.1685 246.112 16.7702 246.879 16.3554C247.653 15.9374 248.252 15.4897 248.578 15.1704C249.226 14.5284 249.605 13.7548 249.694 13.0701C249.782 12.3854 249.572 11.7995 249.118 11.5196Z" fill="url(#paint11_linear)"/>
<path d="M22.2961 33.5126C22.5825 34.7504 23.0367 35.8861 23.5898 36.8803C24.1428 37.8744 24.788 38.727 25.4464 39.4545C26.0982 40.1919 26.8422 40.8207 27.5993 41.4033C27.7935 41.5416 27.9878 41.6798 28.182 41.8214C28.2774 41.8905 28.3795 41.9564 28.4848 42.0222L28.7976 42.2164C29.0049 42.3514 29.2189 42.46 29.4329 42.5752L29.7555 42.7431L30.0847 42.8913C30.957 43.2929 31.8557 43.5957 32.761 43.8097C33.663 44.0237 34.5715 44.1751 35.4702 44.2475C37.2709 44.3957 39.0386 44.2969 40.734 44.0039C41.58 43.8558 42.4128 43.6681 43.2193 43.418C43.6243 43.306 44.0193 43.1612 44.4143 43.0229C44.6118 42.9538 44.8028 42.8715 44.997 42.7958C45.1912 42.7201 45.3821 42.6444 45.5698 42.5555C45.7574 42.4699 45.945 42.3843 46.1327 42.302C46.317 42.2131 46.4981 42.1177 46.6824 42.0255L46.9557 41.8872L47.2223 41.7358C47.4001 41.6338 47.5745 41.535 47.749 41.4329C47.9202 41.3243 48.0881 41.2157 48.2592 41.1038L48.5127 40.9392L48.7563 40.7614C48.9176 40.6429 49.0789 40.5244 49.2402 40.4092C49.3949 40.2841 49.5497 40.159 49.7044 40.0339C49.8591 39.9121 50.0072 39.7804 50.1521 39.6454C50.2969 39.5105 50.4451 39.3821 50.5833 39.2438C50.8533 38.9574 51.1364 38.6908 51.38 38.3879C51.8968 37.8086 52.3247 37.1667 52.7165 36.5214C52.8054 36.3536 52.8942 36.189 52.9831 36.0244L53.1148 35.7775L53.23 35.5207C53.3057 35.3495 53.3814 35.1784 53.4539 35.0105C53.5164 34.836 53.5757 34.6615 53.6382 34.487L53.7271 34.227C53.7534 34.1381 53.7732 34.0492 53.7995 33.9603C53.8456 33.7826 53.8917 33.6081 53.9345 33.4303C53.9707 33.2526 53.997 33.0748 54.0299 32.8971L54.076 32.6337C54.0859 32.5448 54.0925 32.4559 54.1024 32.3671C54.1188 32.1893 54.132 32.0148 54.1484 31.8371C54.1517 31.6626 54.1517 31.4848 54.155 31.3104V31.0503L54.1353 30.7903C54.1221 30.6191 54.1089 30.4479 54.0958 30.2767C54.0694 30.1088 54.0431 29.9409 54.0168 29.7763C54.0036 29.694 53.9904 29.6117 53.9773 29.5294L53.9213 29.2859C53.8818 29.1245 53.8456 28.9632 53.8028 28.8052C53.7534 28.6505 53.704 28.4925 53.6514 28.3411C53.625 28.2654 53.602 28.1864 53.5757 28.1106L53.4769 27.8868C53.4144 27.7387 53.3551 27.5938 53.2958 27.4457C53.2234 27.3041 53.1543 27.1659 53.0852 27.0276L52.9798 26.8202C52.9403 26.7544 52.9008 26.6885 52.8613 26.6227C52.7823 26.491 52.7033 26.3626 52.6243 26.231C52.542 26.1026 52.4498 25.9841 52.3642 25.8623C52.1963 25.6154 52.0021 25.3948 51.8145 25.1743C51.0541 24.2986 50.1587 23.6435 49.26 23.1761C48.358 22.7086 47.4363 22.442 46.5804 22.3334C45.7245 22.2247 44.9311 22.2478 44.2464 22.3794C44.1608 22.3926 44.0752 22.4058 43.9929 22.4222C43.9107 22.442 43.8284 22.4617 43.7493 22.4815C43.5913 22.521 43.4366 22.5605 43.2885 22.6C42.9988 22.7021 42.7256 22.7909 42.482 22.893C42.2482 23.0049 42.0277 23.107 41.8236 23.2057C41.7512 23.2485 41.682 23.2913 41.6129 23.3308C40.1019 23.5909 38.9531 24.9043 38.9531 26.4877C38.9531 28.2588 40.3883 29.694 42.1594 29.694C43.9304 29.694 45.3657 28.2588 45.3657 26.4877C45.3657 25.0986 44.4801 23.9201 43.2457 23.4757C43.3247 23.4592 43.4004 23.446 43.4794 23.4263C43.6177 23.4098 43.7592 23.3934 43.9041 23.3736C43.9765 23.3637 44.0522 23.3539 44.1246 23.344C44.2003 23.3374 44.276 23.3374 44.3551 23.3341C44.9706 23.2847 45.6586 23.3374 46.3796 23.4921C47.1005 23.6501 47.8576 23.9365 48.5851 24.3809C49.3094 24.8286 50.0204 25.4179 50.6097 26.1849C50.7512 26.3791 50.9059 26.5668 51.031 26.7807C51.0969 26.8861 51.166 26.9881 51.2285 27.0967C51.2878 27.2054 51.347 27.3173 51.4063 27.4292C51.4359 27.4852 51.4688 27.5411 51.4952 27.5971L51.5709 27.7716C51.6236 27.8868 51.6762 28.0053 51.7289 28.1238C51.7717 28.2456 51.8145 28.3674 51.8606 28.4925L51.9264 28.6769C51.9462 28.7394 51.9626 28.8052 51.9791 28.8678C52.0153 28.9962 52.0482 29.1245 52.0844 29.2529C52.1108 29.3846 52.1338 29.5163 52.1601 29.648L52.1996 29.8455C52.2095 29.9113 52.2161 29.9804 52.2227 30.0496C52.2391 30.1845 52.2523 30.3195 52.2688 30.4578C52.2721 30.596 52.2786 30.7343 52.2819 30.8725L52.2885 31.0799L52.2786 31.2906C52.2721 31.4322 52.2655 31.5704 52.2589 31.712C52.2391 31.8535 52.2227 31.9951 52.2029 32.1366C52.1931 32.2091 52.1865 32.2782 52.1733 32.3506L52.1272 32.5613C52.0976 32.7028 52.068 32.8444 52.035 32.9859C51.9923 33.1275 51.9495 33.2658 51.9067 33.4073C51.8836 33.4764 51.8672 33.5489 51.8408 33.6213L51.7585 33.8287C51.7059 33.9669 51.6499 34.1085 51.5939 34.2467C51.5281 34.3817 51.4623 34.52 51.3964 34.6582L51.2977 34.8656L51.1824 35.0664C51.1034 35.2014 51.0277 35.3364 50.9487 35.4713C49.6122 37.5979 47.3671 39.3656 44.6612 40.4717C44.4966 40.5474 44.3221 40.61 44.151 40.6725C43.9765 40.7351 43.8086 40.8075 43.6308 40.8634C43.2786 40.9787 42.9264 41.1005 42.561 41.1959C41.84 41.4033 41.0928 41.5613 40.3357 41.6831C38.8181 41.9234 37.2413 41.9893 35.6677 41.8444C34.881 41.7753 34.0975 41.6338 33.3272 41.4461C32.5569 41.2585 31.8063 40.9951 31.092 40.6659L30.8221 40.5441L30.562 40.4059C30.3908 40.3137 30.2131 40.2248 30.0518 40.1162L29.8016 39.9615C29.7193 39.9121 29.6337 39.8594 29.5547 39.7969C29.3901 39.6784 29.2255 39.5599 29.0576 39.4414C28.4157 38.9443 27.7869 38.4143 27.2504 37.802C26.7072 37.1996 26.1739 36.5017 25.7229 35.6919C25.2686 34.8854 24.8967 33.9669 24.6564 32.953C24.416 31.9424 24.3074 30.8396 24.3601 29.6842C24.3634 29.3945 24.4029 29.1048 24.4292 28.8085C24.4588 28.5155 24.5181 28.2193 24.5609 27.9197C24.6827 27.3272 24.8209 26.7215 25.0283 26.1191C25.216 25.5133 25.4727 24.9175 25.746 24.3184C26.0422 23.7291 26.3517 23.1333 26.7302 22.5638C27.0924 21.9844 27.5137 21.4347 27.9614 20.8882C28.1951 20.6249 28.419 20.3516 28.6725 20.0982C28.7976 19.9698 28.9194 19.8381 29.0477 19.713C29.1794 19.5912 29.3111 19.4661 29.4428 19.3443C29.5712 19.2159 29.7094 19.1007 29.851 18.9822C29.9892 18.8637 30.1242 18.7452 30.269 18.6267C30.5686 18.393 30.8715 18.1592 31.1743 17.9255C31.3257 17.8103 31.4772 17.6852 31.6319 17.5733C31.7899 17.4614 31.9479 17.3527 32.1059 17.2408C32.2639 17.1289 32.4219 17.017 32.5799 16.905C32.738 16.7931 32.896 16.6779 33.0639 16.5791C33.393 16.3717 33.7222 16.1611 34.0547 15.9504C34.3905 15.7463 34.7394 15.5619 35.0818 15.3677C35.4241 15.1636 35.783 14.999 36.1418 14.8213C36.3195 14.7324 36.5006 14.6468 36.6816 14.5579C36.8594 14.469 37.0503 14.3999 37.2347 14.3209C37.419 14.2419 37.6067 14.1662 37.791 14.0872C37.9754 14.0082 38.163 13.9292 38.3572 13.8666C38.7391 13.7316 39.1242 13.5967 39.5094 13.4617C39.9044 13.3465 40.2994 13.2313 40.6945 13.1161C40.892 13.0535 41.0961 13.0107 41.2969 12.9646C41.4977 12.9186 41.7018 12.8692 41.9059 12.8231C43.5387 12.4643 45.2274 12.2108 46.9557 12.0594C47.3869 12.0133 47.8247 11.9935 48.2592 11.9606L48.9143 11.9145L49.5727 11.8849C50.0138 11.8651 50.4549 11.8487 50.8961 11.8289C51.3405 11.8191 51.7849 11.8092 52.2293 11.7993C52.6737 11.7861 53.1214 11.7828 53.5691 11.7828C54.0168 11.7795 54.4645 11.7795 54.9155 11.7763C55.3599 11.7861 55.8043 11.796 56.2487 11.8059L56.9169 11.8223C57.1408 11.8289 57.3613 11.8487 57.5852 11.8619C58.0296 11.8915 58.4773 11.9211 58.9217 11.9474C59.3661 11.9804 59.8138 12.0363 60.2582 12.0791C61.1503 12.1581 62.0424 12.2997 62.9312 12.4182C63.3789 12.4774 63.82 12.563 64.2644 12.6354C64.7088 12.7145 65.1533 12.777 65.5977 12.8725C66.4832 13.0502 67.372 13.2148 68.2509 13.4222C70.0154 13.8041 71.7667 14.2649 73.5048 14.7258C75.2396 15.2064 76.9679 15.7002 78.6731 16.217C80.3816 16.7273 82.0769 17.2507 83.7558 17.7642C85.4313 18.2778 87.1069 18.7748 88.7397 19.262C92.0085 20.2463 95.1885 21.247 98.2862 22.0536C99.8334 22.4618 101.364 22.8074 102.862 23.1004C104.363 23.3934 105.841 23.5975 107.276 23.7489C110.157 24.0089 112.892 23.9464 115.341 23.5086C116.566 23.2913 117.725 22.9885 118.782 22.5704C119.835 22.149 120.786 21.5993 121.524 20.8915C121.892 20.5393 122.208 20.1508 122.442 19.7328C122.676 19.3147 122.834 18.8802 122.933 18.4522C122.952 18.3436 122.972 18.2382 122.992 18.1329C123.012 18.0276 123.015 17.9222 123.025 17.8169C123.048 17.6095 123.048 17.4021 123.038 17.2013C123.015 16.7997 122.939 16.4277 122.831 16.0853C122.613 15.4006 122.271 14.841 121.876 14.4493C121.484 14.0542 121.036 13.837 120.661 13.7744C120.286 13.7053 119.993 13.758 119.809 13.8041C119.713 13.8271 119.647 13.8534 119.601 13.8699C119.555 13.8864 119.535 13.8995 119.535 13.9028C119.539 13.916 119.634 13.8864 119.818 13.86C120.003 13.8337 120.286 13.8074 120.635 13.8929C120.981 13.9752 121.385 14.1958 121.734 14.5842C122.087 14.9694 122.389 15.5093 122.567 16.1611C122.656 16.487 122.712 16.8425 122.722 17.2145C122.725 17.4021 122.719 17.5897 122.689 17.784C122.676 17.8794 122.673 17.9815 122.646 18.077C122.626 18.1757 122.603 18.2712 122.584 18.3732C122.478 18.765 122.32 19.16 122.096 19.532C121.869 19.9072 121.57 20.2529 121.221 20.5689C120.516 21.201 119.608 21.698 118.587 22.0733C117.567 22.4453 116.438 22.7086 115.239 22.8897C112.84 23.2518 110.173 23.2485 107.362 22.9292C105.956 22.7481 104.514 22.5144 103.043 22.1918C101.575 21.8692 100.074 21.4939 98.5528 21.0561C95.5045 20.1936 92.3674 19.1304 89.1051 18.077C87.469 17.5535 85.8264 17.0301 84.1607 16.4804C82.495 15.9372 80.8095 15.3809 79.101 14.8344C77.3958 14.2847 75.6676 13.7547 73.9229 13.2379C72.1716 12.7375 70.4104 12.2404 68.6196 11.8191C67.7275 11.5919 66.8255 11.4076 65.9236 11.2101C65.4759 11.108 65.0183 11.0356 64.564 10.9434C64.1097 10.8611 63.6587 10.7656 63.2012 10.6965C62.286 10.5583 61.3774 10.3969 60.4557 10.3015C59.9949 10.2488 59.5373 10.1863 59.0797 10.1435C58.6188 10.1073 58.158 10.0678 57.6971 10.0316C57.4667 10.0151 57.2362 9.98876 57.0058 9.97889L56.3145 9.94926C55.8536 9.92951 55.3928 9.91304 54.9319 9.89329C54.4776 9.88671 54.0233 9.88342 53.5691 9.87684C53.1148 9.87025 52.6638 9.86696 52.2095 9.87354C51.7552 9.87683 51.3042 9.88012 50.85 9.88012C50.3957 9.89329 49.9447 9.90317 49.4937 9.91634L48.8189 9.93609L48.144 9.97229C47.693 9.99863 47.2453 10.0151 46.7943 10.0546C45.0003 10.183 43.2128 10.42 41.4681 10.7821C41.2508 10.8315 41.0335 10.8776 40.8163 10.927C40.599 10.9763 40.3817 11.0191 40.1678 11.0817C39.7398 11.2002 39.3119 11.3187 38.8839 11.4339C38.4626 11.5754 38.0445 11.7137 37.6297 11.8553C37.419 11.9211 37.2149 12.0034 37.0141 12.0857C36.81 12.168 36.6092 12.2503 36.4051 12.3293C36.2043 12.4149 35.9969 12.4873 35.8027 12.5795C35.6052 12.6717 35.411 12.7638 35.2135 12.856C34.8217 13.0403 34.43 13.2181 34.058 13.4321C33.6827 13.6395 33.3042 13.8337 32.9388 14.0477C32.5799 14.2682 32.2211 14.4888 31.8623 14.7093C31.6813 14.8147 31.5101 14.9365 31.3389 15.0517C31.1677 15.1702 30.9965 15.2854 30.8254 15.4039C30.6542 15.5224 30.4863 15.6377 30.3151 15.7529C30.1472 15.8681 29.9892 15.9965 29.8246 16.1183C29.4987 16.3652 29.1761 16.6088 28.8568 16.8491C28.6955 16.9742 28.5375 17.1124 28.3762 17.2441C28.2182 17.3758 28.0569 17.5074 27.9087 17.649C27.7573 17.7873 27.6059 17.9255 27.4545 18.0638C27.3063 18.2053 27.1648 18.3535 27.0232 18.495C26.7335 18.7781 26.4702 19.0876 26.2035 19.3838C25.6867 19.9961 25.1995 20.6216 24.7782 21.28C24.3403 21.9285 23.9716 22.6066 23.6293 23.2814C23.3067 23.9694 23.0038 24.6542 22.78 25.3586C21.8187 28.1567 21.72 31.0404 22.2961 33.5126Z" fill="url(#paint12_linear)"/>
<path d="M102.908 14.693C102.872 14.5712 102.72 14.4823 102.483 14.4198C102.365 14.3868 102.22 14.3638 102.059 14.344L101.802 14.3177L101.509 14.2749C100.699 14.2025 99.5667 14.0346 98.2072 13.6758C96.8476 13.3203 95.2544 12.7113 93.5064 11.9245C92.6307 11.5196 91.7156 11.0752 90.7642 10.5946C89.7799 10.0942 88.7858 9.58724 87.7653 9.06713C86.725 8.54371 85.3457 7.88534 83.7195 7.13478C82.9032 6.7628 82.0242 6.37107 81.0992 5.96287C80.6318 5.76536 80.1544 5.56455 79.6639 5.35716C79.1767 5.14977 78.6764 4.94239 78.1562 4.74487C77.6427 4.54407 77.1193 4.33997 76.586 4.13258C76.0494 3.94165 75.503 3.74743 74.9532 3.54992C74.6767 3.45445 74.4002 3.35569 74.1237 3.26023C73.8406 3.17135 73.5575 3.08247 73.2744 2.99358C72.7049 2.81911 72.1387 2.62818 71.5593 2.46688C69.2451 1.80192 66.8486 1.29497 64.5146 0.926274C59.827 0.241561 55.4027 0.287649 52.2095 0.537833C51.4096 0.606963 50.6821 0.659626 50.0467 0.735339C49.4114 0.820929 48.8617 0.899941 48.4107 0.969071C47.512 1.10733 47.0116 1.21267 47.0182 1.26863C47.0215 1.31801 47.535 1.35093 48.4403 1.37068C48.8913 1.38056 49.4443 1.38714 50.0797 1.39043C50.715 1.4036 51.4359 1.4431 52.2293 1.46944C55.3928 1.59782 59.692 1.98626 64.1163 3.02979C73.011 5.04772 81.965 10.2884 86.1457 12.3162C87.1826 12.8331 88.2064 13.3367 89.2335 13.8042C90.2605 14.2683 91.2777 14.6798 92.2719 15.032C94.2701 15.7201 96.1827 16.1513 97.8418 16.2171C99.5009 16.2895 100.867 16.0492 101.733 15.6674C101.841 15.6246 101.943 15.5818 102.039 15.5423C102.131 15.4962 102.217 15.4435 102.296 15.3941C102.454 15.2987 102.579 15.2065 102.678 15.1209C102.865 14.9596 102.944 14.8148 102.908 14.693Z" fill="url(#paint13_linear)"/>
<path d="M12.1669 32.4C12.4961 32.6765 13.1084 32.5547 13.8227 32.1268C14.5404 31.6988 15.3502 30.9647 16.0941 30.0529C16.8414 29.1377 18.2668 26.9355 19.6724 25.092C20.3703 24.1637 21.0748 23.3308 21.6179 22.7251C21.8813 22.4157 22.1117 22.1721 22.2631 21.9877C22.4146 21.8034 22.4903 21.6783 22.4639 21.6355C22.4409 21.5993 22.3026 21.6224 22.0722 21.6981C21.8418 21.7738 21.5159 21.8956 21.1373 22.0832C20.3736 22.4453 19.3761 23.0445 18.3886 23.7753C16.397 25.2303 14.435 27.156 13.6812 28.0778C12.9207 29.0061 12.3875 29.9541 12.1175 30.731C11.8443 31.5079 11.8377 32.1202 12.1669 32.4Z" fill="url(#paint14_linear)"/>
<path d="M5.71244e-05 22.5341C-0.00652667 23.0706 0.556387 23.5644 1.4847 23.92C2.40972 24.2788 3.71002 24.4927 5.15846 24.4401C5.87938 24.417 7.05788 24.2689 8.40756 23.9891C9.75394 23.7093 11.2682 23.2813 12.6409 22.7382C14.0137 22.2016 15.2349 21.5564 16.0678 20.9869C16.4892 20.7202 16.8085 20.4503 17.0257 20.2627C17.2397 20.0684 17.3451 19.9368 17.3187 19.8808C17.2957 19.8314 17.1245 19.8314 16.8447 19.8709C16.5616 19.9071 16.1764 19.9927 15.6991 20.0651C14.7543 20.2396 13.4738 20.4174 12.1208 20.5128C9.41159 20.7235 6.38633 20.5194 5.0202 20.5589C2.30438 20.6511 0.00993281 21.451 5.71244e-05 22.5341Z" fill="url(#paint15_linear)"/>
<path d="M21.9405 15.9373C21.9405 15.9373 22.5594 15.5784 23.6293 14.9628C24.7156 14.3407 26.3056 13.4782 28.2972 12.5071C30.3053 11.5656 32.7149 10.5089 35.4604 9.56085C38.2058 8.61936 41.2804 7.78981 44.5559 7.22361C47.8313 6.6574 50.9981 6.44014 53.8785 6.51256C54.0596 6.51585 54.2373 6.50926 54.4151 6.51584C54.5929 6.52572 54.7673 6.53889 54.9451 6.54876C55.294 6.56851 55.643 6.59156 55.9853 6.61131C56.3277 6.63765 56.6668 6.63764 56.9959 6.68044C57.3251 6.71994 57.651 6.75945 57.9703 6.79566C58.609 6.87466 59.2377 6.92405 59.8105 7.03926C60.1002 7.08206 60.3866 7.1446 60.6664 7.20714C60.9462 7.2664 61.2194 7.32565 61.4894 7.39478C62.5625 7.65155 63.5435 7.92478 64.4159 8.13546C64.8504 8.24409 65.2586 8.33626 65.6372 8.41198C66.0124 8.49428 66.3614 8.55024 66.6741 8.59962C66.9901 8.65558 67.2568 8.67862 67.4806 8.74446C67.7045 8.80701 67.925 8.88272 68.0962 8.86626C68.2674 8.85639 68.3925 8.81359 68.4715 8.78396C68.5505 8.75434 68.5933 8.74117 68.5933 8.74117C68.5933 8.74117 68.5505 8.74775 68.4682 8.76092C68.3859 8.77409 68.2608 8.79055 68.1061 8.76751C67.9415 8.74776 67.7868 8.65229 67.5596 8.54037C67.4477 8.4844 67.3226 8.43502 67.1844 8.38893C67.0527 8.34285 66.9144 8.29347 66.7663 8.2408C66.4733 8.13875 66.1474 8.02682 65.7952 7.88527C65.4429 7.75031 65.0611 7.59558 64.6529 7.42111C63.8332 7.08205 62.9115 6.66728 61.8482 6.25579C61.5848 6.14716 61.3083 6.05169 61.0252 5.95293C60.7421 5.85088 60.4524 5.74883 60.1463 5.66324C59.5373 5.46244 58.9085 5.34064 58.2502 5.18592C57.921 5.11021 57.5852 5.03779 57.2461 4.95878C56.9071 4.87978 56.5548 4.84357 56.1993 4.78431C55.8438 4.73164 55.4817 4.67567 55.1196 4.623C54.9352 4.59667 54.7509 4.57033 54.5665 4.54071C54.3789 4.51766 54.1912 4.50779 54.0036 4.49133C50.9849 4.18189 47.6075 4.2609 44.151 4.85674C40.6945 5.44928 37.5013 6.47634 34.7296 7.66801C31.9578 8.86955 29.6074 10.2324 27.7047 11.457C25.8184 12.7145 24.3765 13.8403 23.412 14.6501C22.4804 15.4698 21.9405 15.9373 21.9405 15.9373Z" fill="url(#paint16_linear)"/>
<path d="M10.4288 11.5458C9.97449 11.8256 9.76381 12.4116 9.85599 13.0996C9.94487 13.7843 10.3234 14.5579 10.9719 15.1998C11.2945 15.5191 11.8937 15.9701 12.664 16.3915C13.431 16.8128 14.3758 17.2177 15.3765 17.3955C15.8736 17.4844 16.3871 17.5107 16.8611 17.4482C17.3352 17.3856 17.7631 17.2309 18.0627 17.0169C18.3655 16.8095 18.5433 16.5791 18.6355 16.4079C18.7211 16.2269 18.7375 16.1149 18.698 16.0689C18.6223 15.9767 18.2372 16.1314 17.7598 16.0656C17.2858 16.0129 16.7624 15.7232 16.239 15.2755C15.7156 14.8311 15.2053 14.2484 14.7708 13.7152C14.333 13.1852 13.9709 12.7045 13.7108 12.4478C12.6673 11.4174 11.3439 10.9993 10.4288 11.5458Z" fill="url(#paint17_linear)"/>
<defs>
<linearGradient id="paint0_linear" x1="132.941" y1="29.0462" x2="142.457" y2="29.0462" gradientUnits="userSpaceOnUse">
<stop stop-color="#DAAC36"/>
<stop offset="1" stop-color="#F5F4A3"/>
</linearGradient>
<linearGradient id="paint1_linear" x1="125.975" y1="32.2666" x2="133.58" y2="32.2666" gradientUnits="userSpaceOnUse">
<stop stop-color="#DAAC36"/>
<stop offset="1" stop-color="#F5F4A3"/>
</linearGradient>
<linearGradient id="paint2_linear" x1="116.904" y1="29.0462" x2="126.42" y2="29.0462" gradientUnits="userSpaceOnUse">
<stop stop-color="#DAAC36"/>
<stop offset="1" stop-color="#F5F4A3"/>
</linearGradient>
<linearGradient id="paint3_linear" x1="128.54" y1="19.6477" x2="131.01" y2="19.6477" gradientUnits="userSpaceOnUse">
<stop stop-color="#DAAC36"/>
<stop offset="1" stop-color="#F5F4A3"/>
</linearGradient>
<linearGradient id="paint4_linear" x1="131.216" y1="20.9115" x2="134.665" y2="20.9115" gradientUnits="userSpaceOnUse">
<stop stop-color="#DAAC36"/>
<stop offset="1" stop-color="#F5F4A3"/>
</linearGradient>
<linearGradient id="paint5_linear" x1="124.543" y1="20.9117" x2="128.296" y2="20.9117" gradientUnits="userSpaceOnUse">
<stop stop-color="#DAAC36"/>
<stop offset="1" stop-color="#F5F4A3"/>
</linearGradient>
<linearGradient id="paint6_linear" x1="136.499" y1="27.0367" x2="237.624" y2="27.0367" gradientUnits="userSpaceOnUse">
<stop stop-color="#DAAC36"/>
<stop offset="1" stop-color="#F5F4A3"/>
</linearGradient>
<linearGradient id="paint7_linear" x1="156.635" y1="8.28023" x2="212.553" y2="8.28023" gradientUnits="userSpaceOnUse">
<stop stop-color="#DAAC36"/>
<stop offset="1" stop-color="#F5F4A3"/>
</linearGradient>
<linearGradient id="paint8_linear" x1="237.085" y1="27.0448" x2="247.636" y2="27.0448" gradientUnits="userSpaceOnUse">
<stop stop-color="#DAAC36"/>
<stop offset="1" stop-color="#F5F4A3"/>
</linearGradient>
<linearGradient id="paint9_linear" x1="242.228" y1="22.1137" x2="259.552" y2="22.1137" gradientUnits="userSpaceOnUse">
<stop stop-color="#DAAC36"/>
<stop offset="1" stop-color="#F5F4A3"/>
</linearGradient>
<linearGradient id="paint10_linear" x1="190.955" y1="10.0942" x2="237.616" y2="10.0942" gradientUnits="userSpaceOnUse">
<stop stop-color="#DAAC36"/>
<stop offset="1" stop-color="#F5F4A3"/>
</linearGradient>
<linearGradient id="paint11_linear" x1="240.835" y1="14.3473" x2="249.715" y2="14.3473" gradientUnits="userSpaceOnUse">
<stop stop-color="#DAAC36"/>
<stop offset="1" stop-color="#F5F4A3"/>
</linearGradient>
<linearGradient id="paint12_linear" x1="21.944" y1="27.0629" x2="123.06" y2="27.0629" gradientUnits="userSpaceOnUse">
<stop stop-color="#DAAC36"/>
<stop offset="1" stop-color="#F5F4A3"/>
</linearGradient>
<linearGradient id="paint13_linear" x1="47.02" y1="8.28587" x2="102.925" y2="8.28587" gradientUnits="userSpaceOnUse">
<stop stop-color="#DAAC36"/>
<stop offset="1" stop-color="#F5F4A3"/>
</linearGradient>
<linearGradient id="paint14_linear" x1="11.9164" y1="27.0739" x2="22.4708" y2="27.0739" gradientUnits="userSpaceOnUse">
<stop stop-color="#DAAC36"/>
<stop offset="1" stop-color="#F5F4A3"/>
</linearGradient>
<linearGradient id="paint15_linear" x1="0.000566051" y1="22.1412" x2="17.3254" y2="22.1412" gradientUnits="userSpaceOnUse">
<stop stop-color="#DAAC36"/>
<stop offset="1" stop-color="#F5F4A3"/>
</linearGradient>
<linearGradient id="paint16_linear" x1="21.9421" y1="10.1155" x2="68.6007" y2="10.1155" gradientUnits="userSpaceOnUse">
<stop stop-color="#DAAC36"/>
<stop offset="1" stop-color="#F5F4A3"/>
</linearGradient>
<linearGradient id="paint17_linear" x1="9.83502" y1="14.3883" x2="18.7198" y2="14.3883" gradientUnits="userSpaceOnUse">
<stop stop-color="#DAAC36"/>
<stop offset="1" stop-color="#F5F4A3"/>
</linearGradient>
</defs>
</svg>
