<svg width="203" height="45" viewBox="0 0 203 45" fill="none" xmlns="http://www.w3.org/2000/svg">
<path d="M111.273 29.8422C111.463 29.9476 111.602 30.155 111.674 30.4841C111.74 30.8068 111.717 31.2512 111.543 31.7548C111.368 32.2552 111.009 32.7951 110.491 33.1769C109.975 33.5654 109.316 33.7563 108.669 33.697C108.343 33.6806 107.935 33.5588 107.502 33.3382C107.068 33.1144 106.621 32.772 106.219 32.3243C105.816 31.8799 105.457 31.3367 105.172 30.7475C104.887 30.1582 104.674 29.5262 104.533 28.9106C104.397 28.2884 104.325 27.686 104.299 27.1396C104.292 26.8664 104.289 26.6063 104.297 26.366C104.31 26.1224 104.32 25.8985 104.343 25.6977C104.369 25.4936 104.394 25.3126 104.42 25.1513C104.448 24.99 104.484 24.855 104.512 24.7431C104.574 24.5192 104.63 24.4007 104.679 24.4007C104.72 24.4007 104.779 24.5225 104.846 24.7299C104.918 24.9636 105.005 25.2533 105.105 25.5858C105.159 25.7603 105.226 25.9446 105.29 26.1388C105.362 26.3331 105.439 26.5339 105.518 26.738C105.69 27.1429 105.893 27.5544 106.124 27.9362C106.36 28.3115 106.621 28.6538 106.896 28.9271C107.168 29.2036 107.45 29.4143 107.715 29.5591C107.976 29.7072 108.217 29.783 108.412 29.8192C108.461 29.8356 108.507 29.8323 108.551 29.8422C108.595 29.8488 108.636 29.8587 108.672 29.8554C108.71 29.8587 108.743 29.862 108.777 29.8686C108.808 29.8686 108.838 29.8686 108.864 29.8718C109.08 29.8916 109.254 29.9081 109.428 29.9179C109.603 29.9278 109.793 29.9344 110.001 29.8982C110.421 29.8323 110.891 29.625 111.273 29.8422Z" fill="url(#paint0_linear)"/>
<path d="M104.789 34.2895C103.63 30.912 103.317 26.1717 103.281 25.5463C103.278 25.5068 103.26 25.4771 103.24 25.4771L102.108 23.8312C101.959 23.6139 101.692 23.6139 101.543 23.8312L100.412 25.4771C100.391 25.4771 100.373 25.5068 100.371 25.5463C100.335 26.1717 100.071 30.5466 98.8622 34.2895C98.8519 34.3192 101.195 39.6882 101.723 40.8108C101.777 40.9227 101.88 40.9227 101.934 40.8108C102.457 39.6882 104.8 34.3192 104.789 34.2895Z" fill="url(#paint1_linear)"/>
<path d="M92.2267 29.8422C92.0368 29.9476 91.8983 30.155 91.8264 30.4841C91.7597 30.8068 91.7828 31.2512 91.9573 31.7548C92.1318 32.2552 92.491 32.7951 93.0093 33.1769C93.5251 33.5654 94.1845 33.7563 94.8311 33.697C95.157 33.6806 95.565 33.5588 95.9986 33.3382C96.4322 33.1144 96.8787 32.772 97.2816 32.3243C97.6844 31.8799 98.0436 31.3367 98.3284 30.7475C98.6133 30.1582 98.8237 29.5262 98.9674 28.9106C99.1034 28.2884 99.1752 27.686 99.2009 27.1396C99.2086 26.8664 99.2111 26.6063 99.2034 26.366C99.1906 26.1224 99.1803 25.8985 99.1572 25.6977C99.1316 25.4936 99.1059 25.3126 99.0803 25.1513C99.052 24.99 99.0161 24.855 98.9879 24.7431C98.9263 24.5192 98.8699 24.4007 98.8211 24.4007C98.78 24.4007 98.721 24.5225 98.6543 24.7299C98.5825 24.9636 98.4952 25.2533 98.3952 25.5858C98.3413 25.7603 98.2746 25.9446 98.2104 26.1388C98.1386 26.3331 98.0616 26.5339 97.982 26.738C97.8101 27.1429 97.6074 27.5544 97.3765 27.9362C97.1404 28.3115 96.8787 28.6538 96.6042 28.9271C96.3322 29.2036 96.0499 29.4143 95.7856 29.5591C95.5239 29.7072 95.2827 29.783 95.0877 29.8192C95.0389 29.8356 94.9928 29.8323 94.9491 29.8422C94.9055 29.8488 94.8645 29.8587 94.826 29.8554C94.7875 29.8587 94.7541 29.862 94.7208 29.8686C94.69 29.8686 94.6592 29.8686 94.6335 29.8718C94.418 29.8916 94.2435 29.9081 94.069 29.9179C93.8971 29.9278 93.7047 29.9344 93.4968 29.8982C93.0786 29.8323 92.609 29.625 92.2267 29.8422Z" fill="url(#paint2_linear)"/>
<path d="M101.8 22.5243C101.8 22.5243 99.6884 16.7767 101.8 16.7668C103.955 16.7569 101.926 22.87 101.8 22.5243Z" fill="url(#paint3_linear)"/>
<path d="M102.95 22.5111C102.95 22.5111 104.361 18.1066 105.431 19.5978C106.526 21.122 102.862 22.7745 102.95 22.5111Z" fill="url(#paint4_linear)"/>
<path d="M100.656 22.3433C100.656 22.3433 96.9916 21.5664 97.8871 19.8941C98.8006 18.1823 100.874 22.3926 100.656 22.3433Z" fill="url(#paint5_linear)"/>
<path d="M185.6 33.4896C185.377 34.7273 185.022 35.863 184.591 36.8572C184.16 37.8513 183.657 38.7039 183.144 39.4314C182.636 40.1688 182.056 40.7976 181.466 41.3802C181.315 41.5185 181.163 41.6568 181.012 41.7983C180.938 41.8674 180.858 41.9333 180.776 41.9991L180.532 42.1933C180.371 42.3283 180.204 42.4369 180.037 42.5522L179.785 42.72L179.529 42.8682C178.849 43.2698 178.148 43.5727 177.443 43.7866C176.74 44.0006 176.034 44.152 175.331 44.2244C173.928 44.3726 172.55 44.2738 171.228 43.9808C170.569 43.8327 169.92 43.6451 169.291 43.3949C168.975 43.283 168.667 43.1381 168.36 42.9999C168.206 42.9307 168.057 42.8484 167.905 42.7727C167.754 42.697 167.605 42.6213 167.459 42.5324C167.313 42.4468 167.166 42.3612 167.02 42.2789C166.876 42.1901 166.735 42.0946 166.592 42.0024L166.379 41.8642L166.171 41.7127C166.032 41.6107 165.896 41.5086 165.76 41.4099C165.627 41.3012 165.496 41.1926 165.363 41.0807L165.165 40.9161L164.975 40.7383C164.849 40.6198 164.724 40.5013 164.598 40.3861C164.477 40.261 164.357 40.1359 164.236 40.0108C164.116 39.889 164 39.7573 163.887 39.6224C163.774 39.4874 163.659 39.359 163.551 39.2208C163.341 38.9344 163.12 38.6677 162.93 38.3649C162.527 37.7855 162.194 37.1436 161.888 36.4984C161.819 36.3305 161.75 36.1659 161.68 36.0013L161.578 35.7544L161.488 35.4976C161.429 35.3265 161.37 35.1553 161.314 34.9874C161.265 34.8129 161.219 34.6384 161.17 34.464L161.101 34.2039C161.08 34.115 161.065 34.0262 161.044 33.9373C161.008 33.7595 160.972 33.585 160.939 33.4073C160.911 33.2295 160.89 33.0518 160.865 32.874L160.829 32.6106C160.821 32.5218 160.816 32.4329 160.808 32.344C160.795 32.1662 160.785 31.9918 160.772 31.814C160.77 31.6362 160.77 31.4618 160.767 31.2873V31.0272L160.782 30.7672C160.793 30.596 160.803 30.4248 160.813 30.2536C160.834 30.0858 160.854 29.9179 160.875 29.75C160.885 29.6677 160.895 29.5854 160.906 29.5031L160.949 29.2595C160.98 29.0982 161.008 28.9369 161.042 28.7789C161.08 28.6242 161.119 28.4661 161.16 28.3147C161.18 28.239 161.198 28.16 161.219 28.0843L161.29 27.8604C161.339 27.7123 161.385 27.5675 161.432 27.4193C161.488 27.2778 161.542 27.1395 161.596 27.0012L161.678 26.7939C161.709 26.728 161.74 26.6622 161.77 26.5963C161.832 26.4647 161.893 26.3363 161.955 26.2046C162.019 26.0795 162.091 25.9577 162.158 25.8359C162.289 25.589 162.44 25.3685 162.586 25.1479C163.179 24.2723 163.877 23.6172 164.577 23.1497C165.28 22.6823 165.999 22.4156 166.666 22.307C167.333 22.1984 167.952 22.2214 168.485 22.3531C168.552 22.3663 168.619 22.3794 168.683 22.3959C168.747 22.4156 168.811 22.4354 168.873 22.4551C168.996 22.4946 169.116 22.5341 169.232 22.5736C169.458 22.6757 169.671 22.7646 169.861 22.8666C170.043 22.9786 170.215 23.0806 170.374 23.1794C170.43 23.2222 170.484 23.2649 170.538 23.3044C171.716 23.5645 172.611 24.878 172.611 26.4614C172.611 28.2324 171.492 29.6677 170.112 29.6677C168.732 29.6677 167.613 28.2324 167.613 26.4614C167.613 25.0722 168.303 23.8937 169.265 23.4493C169.204 23.4328 169.145 23.4197 169.083 23.3999C168.975 23.3835 168.865 23.367 168.752 23.3472C168.696 23.3374 168.637 23.3275 168.58 23.3176C168.521 23.311 168.462 23.311 168.401 23.3077C167.921 23.2584 167.384 23.311 166.823 23.4658C166.261 23.6238 165.67 23.9102 165.103 24.3546C164.539 24.8023 163.985 25.3915 163.525 26.1585C163.415 26.3527 163.294 26.5404 163.197 26.7544C163.146 26.8597 163.092 26.9617 163.043 27.0704C162.997 27.179 162.951 27.2909 162.904 27.4029C162.881 27.4588 162.856 27.5148 162.835 27.5707L162.776 27.7452C162.735 27.8604 162.694 27.9789 162.653 28.0975C162.62 28.2193 162.586 28.3411 162.55 28.4661L162.499 28.6505C162.484 28.713 162.471 28.7789 162.458 28.8414C162.43 28.9698 162.404 29.0982 162.376 29.2266C162.355 29.3582 162.337 29.4899 162.317 29.6216L162.286 29.8191C162.278 29.8849 162.273 29.9541 162.268 30.0232C162.255 30.1582 162.245 30.2931 162.232 30.4314C162.23 30.5697 162.224 30.7079 162.222 30.8462L162.217 31.0536L162.224 31.2643C162.23 31.4058 162.235 31.5441 162.24 31.6856C162.255 31.8272 162.268 31.9687 162.283 32.1103C162.291 32.1827 162.296 32.2518 162.307 32.3242L162.342 32.5349C162.366 32.6765 162.389 32.818 162.414 32.9596C162.448 33.1011 162.481 33.2394 162.514 33.3809C162.532 33.4501 162.545 33.5225 162.566 33.5916L162.63 33.799C162.671 33.9373 162.715 34.0788 162.758 34.2171C162.809 34.3521 162.861 34.4903 162.912 34.6286L162.989 34.836L163.079 35.0368C163.14 35.1717 163.2 35.3067 163.261 35.4417C164.303 37.5682 166.053 39.336 168.162 40.4421C168.29 40.5178 168.426 40.5803 168.56 40.6429C168.696 40.7054 168.827 40.7778 168.965 40.8338C169.24 40.949 169.514 41.0708 169.799 41.1663C170.361 41.3737 170.943 41.5317 171.534 41.6535C172.716 41.8938 173.945 41.9596 175.172 41.8148C175.785 41.7456 176.396 41.6041 176.996 41.4165C177.597 41.2288 178.182 40.9655 178.739 40.6363L178.949 40.5145L179.152 40.3762C179.285 40.284 179.424 40.1952 179.549 40.0865L179.744 39.9318C179.809 39.8824 179.875 39.8298 179.937 39.7672C180.065 39.6487 180.193 39.5302 180.324 39.4084C180.825 38.9113 181.315 38.3813 181.733 37.7723C182.156 37.1699 182.572 36.472 182.924 35.6622C183.278 34.8557 183.568 33.9373 183.755 32.9234C183.942 31.9128 184.027 30.81 183.986 29.6545C183.983 29.3648 183.952 29.0751 183.932 28.7789C183.909 28.4859 183.863 28.1896 183.829 27.8901C183.734 27.2975 183.627 26.6918 183.465 26.0894C183.319 25.4837 183.119 24.8879 182.906 24.2887C182.675 23.6995 182.433 23.1036 182.138 22.5341C181.856 21.9548 181.528 21.405 181.179 20.8586C180.997 20.5952 180.822 20.322 180.625 20.0685C180.527 19.9401 180.435 19.8085 180.332 19.6834C180.229 19.5616 180.127 19.4365 180.024 19.3147C179.924 19.1863 179.816 19.0711 179.706 18.9526C179.598 18.8341 179.493 18.7155 179.38 18.597C179.147 18.3633 178.911 18.1296 178.674 17.8959C178.556 17.7806 178.438 17.6556 178.318 17.5436C178.195 17.4317 178.071 17.3231 177.948 17.2112C177.825 17.0992 177.702 16.9873 177.579 16.8754C177.456 16.7635 177.332 16.6482 177.202 16.5495C176.945 16.3421 176.688 16.1314 176.429 15.9207C176.168 15.7166 175.896 15.5323 175.629 15.3381C175.362 15.134 175.082 14.9694 174.802 14.7916C174.664 14.7027 174.523 14.6171 174.382 14.5283C174.243 14.4394 174.094 14.3703 173.951 14.2912C173.807 14.2122 173.661 14.1365 173.517 14.0575C173.373 13.9785 173.227 13.8995 173.076 13.837C172.778 13.702 172.478 13.567 172.178 13.4321C171.87 13.3168 171.562 13.2016 171.254 13.0864C171.1 13.0239 170.941 12.9811 170.784 12.935C170.628 12.8889 170.469 12.8395 170.31 12.7934C169.037 12.4346 167.721 12.1811 166.374 12.0297C166.037 11.9869 165.696 11.9639 165.357 11.931L164.847 11.8849L164.334 11.8552C163.99 11.8355 163.646 11.819 163.302 11.7993C162.956 11.7894 162.609 11.7795 162.263 11.7697C161.917 11.7565 161.568 11.7532 161.219 11.7532C160.87 11.7499 160.521 11.7499 160.169 11.7466C159.823 11.7565 159.476 11.7664 159.13 11.7762L158.609 11.7927C158.435 11.7993 158.263 11.819 158.088 11.8322C157.742 11.8618 157.393 11.8914 157.046 11.9178C156.7 11.9507 156.351 12.0067 156.005 12.0495C155.309 12.1285 154.614 12.27 153.919 12.3885C153.57 12.4478 153.226 12.5334 152.879 12.6058C152.533 12.6848 152.187 12.7473 151.84 12.8428C151.15 13.0206 150.457 13.1852 149.772 13.3926C148.397 13.7744 147.032 14.2353 145.677 14.6961C144.325 15.1768 142.978 15.6705 141.649 16.1874C140.317 16.6976 138.995 17.221 137.687 17.7346C136.381 18.2481 135.075 18.7452 133.802 19.2324C131.254 20.2167 128.775 21.2174 126.361 22.0239C125.155 22.4321 123.962 22.7777 122.794 23.0707C121.624 23.3637 120.472 23.5678 119.353 23.7192C117.108 23.9793 114.976 23.9167 113.067 23.4789C112.112 23.2617 111.209 22.9621 110.386 22.5407C109.565 22.1194 108.823 21.5696 108.248 20.8619C107.961 20.5096 107.714 20.1212 107.532 19.7031C107.35 19.2851 107.227 18.8505 107.15 18.4226C107.135 18.3139 107.119 18.2086 107.104 18.1033C107.088 17.9979 107.086 17.8926 107.078 17.7872C107.06 17.5798 107.06 17.3725 107.068 17.1717C107.086 16.77 107.145 16.3981 107.23 16.0557C107.399 15.371 107.666 14.8114 107.974 14.4196C108.279 14.0246 108.628 13.8073 108.92 13.7448C109.213 13.6757 109.441 13.7283 109.585 13.7744C109.659 13.7975 109.711 13.8238 109.747 13.8402C109.783 13.8567 109.798 13.8699 109.798 13.8732C109.795 13.8863 109.721 13.8567 109.577 13.8304C109.434 13.804 109.213 13.7777 108.941 13.8633C108.672 13.9456 108.356 14.1661 108.084 14.5546C107.809 14.9397 107.573 15.4796 107.435 16.1314C107.366 16.4573 107.322 16.8128 107.314 17.1848C107.312 17.3725 107.317 17.5601 107.34 17.7543C107.35 17.8498 107.353 17.9518 107.373 18.0473C107.389 18.146 107.407 18.2415 107.422 18.3436C107.504 18.7353 107.627 19.1303 107.802 19.5023C107.979 19.8776 108.212 20.2232 108.484 20.5393C109.033 21.1713 109.742 21.6684 110.537 22.0437C111.332 22.4156 112.213 22.679 113.146 22.86C115.017 23.2222 117.095 23.2189 119.287 22.8995C120.382 22.7185 121.506 22.4848 122.653 22.1622C123.798 21.8396 124.968 21.4643 126.153 21.0265C128.529 20.164 130.974 19.1007 133.517 18.0473C134.792 17.5239 136.073 17.0005 137.371 16.4507C138.669 15.9076 139.983 15.3512 141.315 14.8048C142.644 14.255 143.991 13.725 145.351 13.2082C146.716 12.7078 148.089 12.2108 149.485 11.7894C150.18 11.5623 150.883 11.3779 151.586 11.1804C151.935 11.0784 152.292 11.0059 152.646 10.9138C153 10.8315 153.352 10.736 153.708 10.6669C154.422 10.5286 155.13 10.3673 155.848 10.2718C156.207 10.2192 156.564 10.1566 156.923 10.1138C157.283 10.0776 157.642 10.0381 158.001 10.0019C158.181 9.98545 158.36 9.95911 158.54 9.94923L159.079 9.91961C159.438 9.89986 159.797 9.88339 160.156 9.86364C160.51 9.85706 160.865 9.85377 161.219 9.84719C161.573 9.8406 161.924 9.83731 162.278 9.84389C162.632 9.84718 162.984 9.85047 163.338 9.85047C163.692 9.86364 164.044 9.87352 164.395 9.88669L164.921 9.90644L165.447 9.94264C165.799 9.96898 166.148 9.98544 166.499 10.0249C167.898 10.1533 169.291 10.3904 170.651 10.7525C170.82 10.8018 170.99 10.8479 171.159 10.8973C171.328 10.9467 171.498 10.9895 171.664 11.052C171.998 11.1705 172.332 11.289 172.665 11.4042C172.994 11.5458 173.319 11.6841 173.643 11.8256C173.807 11.8914 173.966 11.9737 174.123 12.056C174.282 12.1383 174.438 12.2206 174.597 12.2996C174.754 12.3852 174.915 12.4577 175.067 12.5498C175.221 12.642 175.372 12.7342 175.526 12.8263C175.831 13.0107 176.137 13.1885 176.427 13.4024C176.719 13.6098 177.014 13.804 177.299 14.018C177.579 14.2386 177.858 14.4591 178.138 14.6797C178.279 14.785 178.413 14.9068 178.546 15.022C178.68 15.1406 178.813 15.2558 178.946 15.3743C179.08 15.4928 179.211 15.608 179.344 15.7232C179.475 15.8384 179.598 15.9668 179.726 16.0886C179.98 16.3322 180.232 16.5791 180.481 16.8194C180.607 16.9445 180.73 17.0828 180.855 17.2144C180.979 17.3461 181.104 17.4778 181.22 17.6193C181.338 17.7576 181.456 17.8959 181.574 18.0341C181.689 18.1757 181.8 18.3238 181.91 18.4654C182.136 18.7485 182.341 19.0579 182.549 19.3542C182.952 19.9665 183.332 20.5919 183.66 21.2503C184.001 21.8988 184.289 22.5769 184.555 23.2518C184.807 23.9398 185.043 24.6245 185.22 25.329C185.969 28.1304 186.049 31.0141 185.6 33.4896Z" fill="url(#paint6_linear)"/>
<path d="M122.766 14.6698C122.738 14.7916 122.799 14.9364 122.953 15.1043C123.03 15.1899 123.13 15.2821 123.251 15.3775C123.313 15.4236 123.379 15.4796 123.451 15.5257C123.526 15.5685 123.605 15.608 123.69 15.6508C124.365 16.0293 125.43 16.2696 126.723 16.2005C128.018 16.1347 129.509 15.7034 131.064 15.0154C131.839 14.6632 132.632 14.2484 133.433 13.7876C134.231 13.3234 135.031 12.8164 135.839 12.2996C139.098 10.2718 146.085 5.04428 153.015 3.03293C156.464 1.99269 159.813 1.60754 162.278 1.47586C162.894 1.44952 163.456 1.40673 163.954 1.39356C164.449 1.39027 164.88 1.38369 165.232 1.37053C165.937 1.34748 166.335 1.30797 166.34 1.25201C166.343 1.20263 165.955 1.10388 165.252 0.968915C164.901 0.899785 164.472 0.824067 163.977 0.738478C163.479 0.662765 162.915 0.613387 162.291 0.544257C159.802 0.294073 156.356 0.247981 152.702 0.929403C150.883 1.2948 149.015 1.79846 147.211 2.46343C146.757 2.62144 146.318 2.81237 145.875 2.98684C145.654 3.07572 145.433 3.16461 145.213 3.25349C144.994 3.34896 144.779 3.4477 144.566 3.54317C144.135 3.73739 143.712 3.93162 143.293 4.12255C142.878 4.32994 142.47 4.53074 142.069 4.73155C141.667 4.92906 141.274 5.13316 140.894 5.34055C140.512 5.54794 140.137 5.74874 139.773 5.94296C139.052 6.35116 138.367 6.73961 137.73 7.11159C136.463 7.86214 135.388 8.52052 134.577 9.04393C133.781 9.56405 133.007 10.071 132.239 10.5714C131.495 11.052 130.782 11.4964 130.102 11.9013C128.74 12.6881 127.498 13.3004 126.438 13.6526C125.378 14.0114 124.498 14.1793 123.864 14.2517L123.636 14.2945L123.436 14.3208C123.31 14.3406 123.2 14.3636 123.105 14.3965C122.91 14.4591 122.794 14.548 122.766 14.6698Z" fill="url(#paint7_linear)"/>
<path d="M193.495 32.3736C193.752 32.0938 193.747 31.4815 193.536 30.7046C193.326 29.9277 192.91 28.9829 192.317 28.0513C191.727 27.1296 190.206 25.1973 188.656 23.7357C187.886 23.0016 187.111 22.4024 186.513 22.0403C186.218 21.8527 185.964 21.7309 185.782 21.6585C185.6 21.586 185.492 21.5663 185.471 21.6091C185.453 21.6453 185.512 21.7671 185.633 21.9482C185.754 22.1292 185.933 22.3728 186.141 22.6823C186.565 23.2847 187.114 24.1208 187.658 25.0524C188.751 26.9025 189.851 29.1146 190.436 30.0265C191.016 30.9383 191.648 31.6691 192.207 32.1004C192.761 32.5283 193.238 32.6501 193.495 32.3736Z" fill="url(#paint8_linear)"/>
<path d="M202.979 22.5078C202.968 21.4247 201.183 20.6215 199.068 20.5326C198.003 20.4898 195.645 20.6808 193.539 20.4635C192.484 20.3647 191.488 20.187 190.752 20.0158C190.38 19.9467 190.077 19.8611 189.857 19.8315C189.636 19.7985 189.502 19.8018 189.479 19.8578C189.461 19.9072 189.546 20.0323 189.713 20.2232C189.882 20.4108 190.131 20.6742 190.46 20.9408C191.106 21.507 192.058 22.1522 193.126 22.6921C194.193 23.2386 195.373 23.6731 196.423 23.9562C197.472 24.2426 198.391 24.394 198.953 24.4171C200.082 24.4697 201.095 24.2558 201.816 23.8969C202.545 23.5381 202.984 23.0443 202.979 22.5078Z" fill="url(#paint9_linear)"/>
<path d="M185.877 15.9141C185.877 15.9141 185.456 15.4434 184.727 14.6303C183.976 13.8172 182.852 12.6946 181.381 11.4371C179.898 10.2093 178.066 8.84642 175.906 7.64817C173.745 6.45321 171.256 5.42944 168.562 4.8369C165.868 4.24107 163.238 4.16206 160.882 4.47149C160.736 4.48795 160.587 4.49783 160.444 4.52087C160.3 4.5472 160.156 4.57354 160.013 4.60317C159.728 4.65913 159.448 4.71181 159.171 4.76448C158.894 4.82373 158.622 4.85994 158.355 4.93895C158.091 5.01466 157.832 5.09037 157.572 5.16609C157.062 5.32081 156.569 5.4426 156.094 5.64341C155.856 5.729 155.63 5.83105 155.409 5.93309C155.189 6.03185 154.973 6.13061 154.768 6.23595C153.939 6.64744 153.221 7.06221 152.582 7.40128C152.264 7.57575 151.966 7.73047 151.691 7.86544C151.417 8.01028 151.163 8.11892 150.934 8.22097C150.819 8.27364 150.711 8.32301 150.609 8.3691C150.501 8.41518 150.403 8.46786 150.316 8.52053C150.142 8.63245 150.018 8.72791 149.89 8.74766C149.77 8.7707 149.672 8.75425 149.608 8.74108C149.544 8.72791 149.51 8.72463 149.51 8.72463C149.51 8.72463 149.544 8.74109 149.605 8.76742C149.667 8.79705 149.764 8.83984 149.898 8.84972C150.031 8.86618 150.206 8.79046 150.378 8.72791C150.552 8.66536 150.76 8.63903 151.006 8.58307C151.25 8.53369 151.522 8.48103 151.815 8.39544C152.11 8.31972 152.428 8.22755 152.767 8.11892C153.446 7.91153 154.211 7.63501 155.048 7.37824C155.258 7.30911 155.471 7.24986 155.689 7.1906C155.907 7.12806 156.13 7.0688 156.356 7.02271C156.803 6.9075 157.293 6.85812 157.791 6.77911C158.039 6.73961 158.293 6.7034 158.55 6.6639C158.807 6.61781 159.071 6.61781 159.338 6.59477C159.605 6.57502 159.874 6.55197 160.149 6.53222C160.285 6.52235 160.423 6.50918 160.562 6.4993C160.7 6.49272 160.841 6.49601 160.98 6.49601C163.228 6.42358 165.696 6.64085 168.247 7.20706C170.8 7.76997 173.196 8.59953 175.336 9.5443C177.476 10.4924 179.354 11.5491 180.92 12.4906C182.472 13.4617 183.711 14.3241 184.558 14.9463C185.395 15.5553 185.877 15.9141 185.877 15.9141Z" fill="url(#paint10_linear)"/>
<path d="M194.847 11.5194C194.134 10.9729 193.103 11.3943 192.289 12.4181C192.086 12.6749 191.802 13.1522 191.46 13.6789C191.119 14.2089 190.719 14.785 190.313 15.2261C189.908 15.6705 189.505 15.9569 189.141 16.0128C188.774 16.082 188.469 15.9371 188.404 16.0392C188.376 16.0787 188.392 16.1873 188.461 16.3618C188.533 16.5297 188.671 16.7535 188.905 16.9609C189.136 17.1716 189.467 17.3263 189.834 17.3888C190.2 17.4547 190.598 17.4284 190.986 17.3428C191.763 17.1683 192.505 16.77 193.102 16.3552C193.705 15.9371 194.172 15.4894 194.426 15.1701C194.932 14.5282 195.227 13.7546 195.296 13.0699C195.366 12.3852 195.201 11.7992 194.847 11.5194Z" fill="url(#paint11_linear)"/>
<path d="M18.0492 33.5126C18.2724 34.7504 18.6265 35.8861 19.0576 36.8803C19.4886 37.8744 19.9916 38.727 20.5047 39.4545C21.0128 40.1919 21.5927 40.8207 22.1828 41.4033C22.3342 41.5416 22.4856 41.6798 22.637 41.8214C22.7114 41.8905 22.791 41.9564 22.8731 42.0222L23.1168 42.2164C23.2785 42.3514 23.4453 42.46 23.612 42.5752L23.8635 42.7431L24.1201 42.8913C24.8001 43.2929 25.5005 43.5957 26.2062 43.8097C26.9092 44.0237 27.6174 44.1751 28.3179 44.2475C29.7215 44.3957 31.0993 44.2969 32.4208 44.0039C33.0802 43.8558 33.7294 43.6681 34.358 43.418C34.6736 43.306 34.9815 43.1612 35.2894 43.0229C35.4434 42.9538 35.5922 42.8715 35.7436 42.7958C35.895 42.7201 36.0438 42.6444 36.1901 42.5555C36.3363 42.4699 36.4826 42.3843 36.6288 42.302C36.7725 42.2131 36.9137 42.1177 37.0574 42.0255L37.2703 41.8872L37.4782 41.7358C37.6167 41.6338 37.7527 41.535 37.8887 41.4329C38.0221 41.3243 38.153 41.2157 38.2864 41.1038L38.484 40.9392L38.6739 40.7614C38.7996 40.6429 38.9253 40.5244 39.0511 40.4092C39.1717 40.2841 39.2922 40.159 39.4128 40.0339C39.5334 39.9121 39.6489 39.7804 39.7618 39.6454C39.8747 39.5105 39.9902 39.3821 40.0979 39.2438C40.3083 38.9574 40.529 38.6908 40.7189 38.3879C41.1217 37.8086 41.4553 37.1667 41.7606 36.5214C41.8299 36.3536 41.8992 36.189 41.9685 36.0244L42.0711 35.7775L42.1609 35.5207C42.2199 35.3495 42.279 35.1784 42.3354 35.0105C42.3842 34.836 42.4303 34.6615 42.4791 34.487L42.5484 34.227C42.5689 34.1381 42.5843 34.0492 42.6048 33.9603C42.6407 33.7826 42.6767 33.6081 42.71 33.4303C42.7383 33.2526 42.7588 33.0748 42.7844 32.8971L42.8204 32.6337C42.8281 32.5448 42.8332 32.4559 42.8409 32.3671C42.8537 32.1893 42.864 32.0148 42.8768 31.8371C42.8794 31.6626 42.8794 31.4848 42.8819 31.3104V31.0503L42.8665 30.7903C42.8563 30.6191 42.846 30.4479 42.8358 30.2767C42.8152 30.1088 42.7947 29.9409 42.7742 29.7763C42.7639 29.694 42.7536 29.6117 42.7434 29.5294L42.6998 29.2859C42.669 29.1245 42.6408 28.9632 42.6074 28.8052C42.5689 28.6505 42.5304 28.4925 42.4894 28.3411C42.4688 28.2654 42.4509 28.1864 42.4303 28.1106L42.3534 27.8868C42.3046 27.7387 42.2584 27.5938 42.2122 27.4457C42.1558 27.3041 42.1019 27.1659 42.048 27.0276L41.9659 26.8202C41.9351 26.7544 41.9043 26.6885 41.8735 26.6227C41.812 26.491 41.7504 26.3626 41.6888 26.231C41.6247 26.1026 41.5528 25.9841 41.4861 25.8623C41.3552 25.6154 41.2038 25.3948 41.0576 25.1743C40.4649 24.2986 39.7669 23.6435 39.0665 23.1761C38.3634 22.7086 37.6449 22.442 36.9778 22.3334C36.3107 22.2247 35.6923 22.2478 35.1586 22.3794C35.0919 22.3926 35.0252 22.4058 34.961 22.4222C34.8969 22.442 34.8327 22.4617 34.7711 22.4815C34.648 22.521 34.5274 22.5605 34.4119 22.6C34.1861 22.7021 33.9731 22.7909 33.7833 22.893C33.6011 23.0049 33.4292 23.107 33.2701 23.2057C33.2136 23.2485 33.1598 23.2913 33.1059 23.3308C31.9281 23.5909 31.0326 24.9043 31.0326 26.4877C31.0326 28.2588 32.1514 29.694 33.5318 29.694C34.9123 29.694 36.031 28.2588 36.031 26.4877C36.031 25.0986 35.3408 23.9201 34.3786 23.4757C34.4401 23.4592 34.4992 23.446 34.5607 23.4263C34.6685 23.4098 34.7788 23.3934 34.8917 23.3736C34.9482 23.3637 35.0072 23.3539 35.0637 23.344C35.1227 23.3374 35.1817 23.3374 35.2433 23.3341C35.7231 23.2847 36.2594 23.3374 36.8213 23.4921C37.3832 23.6501 37.9734 23.9365 38.5404 24.3809C39.1049 24.8286 39.6592 25.4179 40.1185 26.1849C40.2288 26.3791 40.3494 26.5668 40.4469 26.7807C40.4982 26.8861 40.5521 26.9881 40.6009 27.0967C40.647 27.2054 40.6932 27.3173 40.7394 27.4292C40.7625 27.4852 40.7882 27.5411 40.8087 27.5971L40.8677 27.7716C40.9088 27.8868 40.9498 28.0053 40.9909 28.1238C41.0242 28.2456 41.0576 28.3674 41.0935 28.4925L41.1448 28.6769C41.1602 28.7394 41.1731 28.8052 41.1859 28.8678C41.2141 28.9962 41.2398 29.1245 41.268 29.2529C41.2885 29.3846 41.3065 29.5163 41.327 29.648L41.3578 29.8455C41.3655 29.9113 41.3706 29.9804 41.3758 30.0496C41.3886 30.1845 41.3989 30.3195 41.4117 30.4578C41.4142 30.596 41.4194 30.7343 41.4219 30.8725L41.4271 31.0799L41.4194 31.2906C41.4142 31.4322 41.4091 31.5704 41.404 31.712C41.3886 31.8535 41.3758 31.9951 41.3604 32.1366C41.3527 32.2091 41.3475 32.2782 41.3373 32.3506L41.3013 32.5613C41.2783 32.7028 41.2552 32.8444 41.2295 32.9859C41.1961 33.1275 41.1628 33.2658 41.1294 33.4073C41.1115 33.4764 41.0986 33.5489 41.0781 33.6213L41.014 33.8287C40.9729 33.9669 40.9293 34.1085 40.8857 34.2467C40.8344 34.3817 40.783 34.52 40.7317 34.6582L40.6547 34.8656L40.5649 35.0664C40.5034 35.2014 40.4443 35.3364 40.3828 35.4713C39.341 37.5979 37.5911 39.3656 35.4819 40.4717C35.3536 40.5474 35.2176 40.61 35.0842 40.6725C34.9482 40.7351 34.8173 40.8075 34.6788 40.8634C34.4042 40.9787 34.1297 41.1005 33.8448 41.1959C33.2829 41.4033 32.7005 41.5613 32.1103 41.6831C30.9274 41.9234 29.6984 41.9893 28.4719 41.8444C27.8586 41.7753 27.2479 41.6338 26.6475 41.4461C26.0471 41.2585 25.4621 40.9951 24.9053 40.6659L24.6949 40.5441L24.4921 40.4059C24.3587 40.3137 24.2202 40.2248 24.0944 40.1162L23.8994 39.9615C23.8353 39.9121 23.7686 39.8594 23.707 39.7969C23.5787 39.6784 23.4504 39.5599 23.3195 39.4414C22.8192 38.9443 22.3291 38.4143 21.9109 37.802C21.4875 37.1996 21.0718 36.5017 20.7203 35.6919C20.3662 34.8854 20.0762 33.9669 19.8889 32.953C19.7016 31.9424 19.6169 30.8396 19.658 29.6842C19.6606 29.3945 19.6914 29.1048 19.7119 28.8085C19.735 28.5155 19.7812 28.2193 19.8145 27.9197C19.9095 27.3272 20.0172 26.7215 20.1789 26.1191C20.3251 25.5133 20.5253 24.9175 20.7382 24.3184C20.9692 23.7291 21.2104 23.1333 21.5054 22.5638C21.7877 21.9844 22.1161 21.4347 22.4651 20.8882C22.6473 20.6249 22.8218 20.3516 23.0193 20.0982C23.1168 19.9698 23.2118 19.8381 23.3118 19.713C23.4145 19.5912 23.5171 19.4661 23.6197 19.3443C23.7198 19.2159 23.8276 19.1007 23.9379 18.9822C24.0457 18.8637 24.1509 18.7452 24.2638 18.6267C24.4973 18.393 24.7333 18.1592 24.9694 17.9255C25.0874 17.8103 25.2055 17.6852 25.3261 17.5733C25.4492 17.4614 25.5724 17.3527 25.6956 17.2408C25.8187 17.1289 25.9419 17.017 26.065 16.905C26.1882 16.7931 26.3114 16.6779 26.4422 16.5791C26.6988 16.3717 26.9554 16.1611 27.2146 15.9504C27.4763 15.7463 27.7483 15.5619 28.0151 15.3677C28.282 15.1636 28.5617 14.999 28.8413 14.8213C28.9799 14.7324 29.121 14.6468 29.2622 14.5579C29.4007 14.469 29.5495 14.3999 29.6932 14.3209C29.8369 14.2419 29.9832 14.1662 30.1269 14.0872C30.2706 14.0082 30.4168 13.9292 30.5682 13.8666C30.8658 13.7316 31.1661 13.5967 31.4663 13.4617C31.7742 13.3465 32.0821 13.2313 32.39 13.1161C32.5439 13.0535 32.703 13.0107 32.8595 12.9646C33.0161 12.9186 33.1752 12.8692 33.3342 12.8231C34.6069 12.4643 35.9232 12.2108 37.2703 12.0594C37.6065 12.0133 37.9477 11.9935 38.2864 11.9606L38.797 11.9145L39.3102 11.8849C39.654 11.8651 39.9979 11.8487 40.3417 11.8289C40.6881 11.8191 41.0345 11.8092 41.3809 11.7993C41.7273 11.7861 42.0763 11.7828 42.4252 11.7828C42.7742 11.7795 43.1231 11.7795 43.4747 11.7763C43.8211 11.7861 44.1675 11.796 44.5139 11.8059L45.0347 11.8223C45.2092 11.8289 45.3811 11.8487 45.5556 11.8619C45.902 11.8915 46.251 11.9211 46.5974 11.9474C46.9438 11.9804 47.2927 12.0363 47.6391 12.0791C48.3345 12.1581 49.0298 12.2997 49.7226 12.4182C50.0716 12.4774 50.4154 12.563 50.7618 12.6354C51.1082 12.7145 51.4546 12.777 51.801 12.8725C52.4912 13.0502 53.184 13.2148 53.8691 13.4222C55.2444 13.8041 56.6095 14.2649 57.9643 14.7258C59.3165 15.2064 60.6636 15.7002 61.9928 16.217C63.3245 16.7273 64.6459 17.2507 65.9545 17.7642C67.2605 18.2778 68.5666 18.7748 69.8393 19.262C72.3872 20.2463 74.8659 21.247 77.2804 22.0536C78.4863 22.4618 79.6795 22.8074 80.847 23.1004C82.017 23.3934 83.1691 23.5975 84.2878 23.7489C86.533 24.0089 88.6653 23.9464 90.5743 23.5086C91.5288 23.2913 92.432 22.9885 93.2557 22.5704C94.0768 22.149 94.8183 21.5993 95.3931 20.8915C95.6804 20.5393 95.9268 20.1508 96.1089 19.7328C96.2911 19.3147 96.4143 18.8802 96.4913 18.4522C96.5067 18.3436 96.5221 18.2382 96.5375 18.1329C96.5528 18.0276 96.5554 17.9222 96.5631 17.8169C96.5811 17.6095 96.5811 17.4021 96.5734 17.2013C96.5554 16.7997 96.4964 16.4277 96.4117 16.0853C96.2424 15.4006 95.9755 14.841 95.6676 14.4493C95.3623 14.0542 95.0133 13.837 94.7208 13.7744C94.4283 13.7053 94.1999 13.758 94.0562 13.8041C93.9818 13.8271 93.9305 13.8534 93.8946 13.8699C93.8587 13.8864 93.8433 13.8995 93.8433 13.9028C93.8458 13.916 93.9202 13.8864 94.0639 13.86C94.2076 13.8337 94.4283 13.8074 94.7003 13.8929C94.9697 13.9752 95.2853 14.1958 95.5573 14.5842C95.8318 14.9694 96.0679 15.5093 96.2064 16.1611C96.2757 16.487 96.3193 16.8425 96.327 17.2145C96.3296 17.4021 96.3245 17.5897 96.3014 17.784C96.2911 17.8794 96.2886 17.9815 96.268 18.077C96.2526 18.1757 96.2347 18.2712 96.2193 18.3732C96.1372 18.765 96.014 19.16 95.8395 19.532C95.6625 19.9072 95.429 20.2529 95.157 20.5689C94.6079 21.201 93.8997 21.698 93.1043 22.0733C92.3088 22.4453 91.4287 22.7086 90.4948 22.8897C88.6242 23.2518 86.5458 23.2485 84.3546 22.9292C83.2589 22.7481 82.1351 22.5144 80.9881 22.1918C79.8437 21.8692 78.6737 21.4939 77.4882 21.0561C75.1122 20.1936 72.6669 19.1304 70.1241 18.077C68.8488 17.5535 67.5684 17.0301 66.2701 16.4804C64.9718 15.9372 63.658 15.3809 62.3263 14.8344C60.9972 14.2847 59.6501 13.7547 58.2902 13.2379C56.9251 12.7375 55.5523 12.2404 54.1565 11.8191C53.4611 11.5919 52.7581 11.4076 52.055 11.2101C51.7061 11.108 51.3494 11.0356 50.9953 10.9434C50.6412 10.8611 50.2897 10.7656 49.933 10.6965C49.2197 10.5583 48.5115 10.3969 47.7931 10.3015C47.4338 10.2488 47.0772 10.1863 46.7205 10.1435C46.3613 10.1073 46.0021 10.0678 45.6429 10.0316C45.4632 10.0151 45.2836 9.98876 45.104 9.97889L44.5652 9.94926C44.2059 9.92951 43.8467 9.91304 43.4875 9.89329C43.1334 9.88671 42.7793 9.88342 42.4252 9.87684C42.0711 9.87025 41.7196 9.86696 41.3655 9.87354C41.0114 9.87683 40.6599 9.88012 40.3058 9.88012C39.9517 9.89329 39.6002 9.90317 39.2486 9.91634L38.7226 9.93609L38.1966 9.97229C37.8451 9.99863 37.4961 10.0151 37.1446 10.0546C35.7462 10.183 34.3529 10.42 32.993 10.7821C32.8236 10.8315 32.6543 10.8776 32.4849 10.927C32.3156 10.9763 32.1462 11.0191 31.9794 11.0817C31.6459 11.2002 31.3123 11.3187 30.9787 11.4339C30.6503 11.5754 30.3244 11.7137 30.0011 11.8553C29.8369 11.9211 29.6778 12.0034 29.5213 12.0857C29.3622 12.168 29.2057 12.2503 29.0466 12.3293C28.8901 12.4149 28.7284 12.4873 28.5771 12.5795C28.4231 12.6717 28.2717 12.7638 28.1178 12.856C27.8124 13.0403 27.5071 13.2181 27.2171 13.4321C26.9246 13.6395 26.6295 13.8337 26.3447 14.0477C26.065 14.2682 25.7854 14.4888 25.5057 14.7093C25.3646 14.8147 25.2311 14.9365 25.0977 15.0517C24.9643 15.1702 24.8308 15.2854 24.6974 15.4039C24.564 15.5224 24.4331 15.6377 24.2997 15.7529C24.1688 15.8681 24.0457 15.9965 23.9174 16.1183C23.6634 16.3652 23.4119 16.6088 23.163 16.8491C23.0373 16.9742 22.9141 17.1124 22.7884 17.2441C22.6652 17.3758 22.5395 17.5074 22.424 17.649C22.306 17.7873 22.188 17.9255 22.0699 18.0638C21.9545 18.2053 21.8441 18.3535 21.7338 18.495C21.508 18.7781 21.3027 19.0876 21.0949 19.3838C20.6921 19.9961 20.3123 20.6216 19.9839 21.28C19.6426 21.9285 19.3552 22.6066 19.0884 23.2814C18.8369 23.9694 18.6008 24.6542 18.4264 25.3586C17.6771 28.1567 17.6001 31.0404 18.0492 33.5126Z" fill="url(#paint12_linear)"/>
<path d="M80.8829 14.6929C80.8546 14.5711 80.7366 14.4822 80.5519 14.4196C80.4595 14.3867 80.3466 14.3637 80.2209 14.3439L80.0207 14.3176L79.7924 14.2748C79.1611 14.2024 78.2785 14.0345 77.2188 13.6757C76.159 13.3201 74.9171 12.7111 73.5547 11.9244C72.8721 11.5195 72.1588 11.0751 71.4173 10.5944C70.6501 10.0941 69.8752 9.58712 69.0797 9.067C68.2689 8.54359 67.1938 7.88521 65.9262 7.13466C65.2899 6.76268 64.6048 6.37094 63.8838 5.96275C63.5194 5.76523 63.1474 5.56443 62.7651 5.35704C62.3853 5.14965 61.9953 4.94226 61.5899 4.74475C61.1896 4.54394 60.7816 4.33984 60.366 4.13245C59.9477 3.94152 59.5218 3.7473 59.0933 3.54979C58.8777 3.45433 58.6622 3.35557 58.4467 3.2601C58.226 3.17122 58.0053 3.08234 57.7847 2.99346C57.3408 2.81899 56.8994 2.62806 56.4478 2.46675C54.644 1.80179 52.776 1.29484 50.9568 0.926148C47.303 0.241434 43.8544 0.287523 41.3655 0.537707C40.742 0.606837 40.1749 0.659499 39.6797 0.735213C39.1845 0.820802 38.756 0.899815 38.4045 0.968945C37.704 1.1072 37.3139 1.21255 37.3191 1.26851C37.3216 1.31789 37.7219 1.35081 38.4275 1.37056C38.7791 1.38043 39.2101 1.38702 39.7054 1.39031C40.2006 1.40347 40.7625 1.44297 41.3809 1.46931C43.8467 1.59769 47.1978 1.98613 50.6463 3.02966C57.5794 5.0476 64.5586 10.2883 67.8173 12.3161C68.6256 12.8329 69.4236 13.3366 70.2241 13.804C71.0247 14.2682 71.8175 14.6797 72.5924 15.0319C74.1499 15.7199 75.6407 16.1512 76.9339 16.217C78.2271 16.2894 79.292 16.0491 79.9668 15.6673C80.0515 15.6245 80.131 15.5817 80.2055 15.5422C80.2773 15.4961 80.344 15.4434 80.4056 15.394C80.5288 15.2986 80.6263 15.2064 80.7032 15.1208C80.8495 14.9595 80.9111 14.8147 80.8829 14.6929Z" fill="url(#paint13_linear)"/>
<path d="M10.1539 32.4C10.4105 32.6765 10.8877 32.5547 11.4445 32.1267C12.0039 31.6988 12.6351 30.9647 13.215 30.0528C13.7974 29.1377 14.9085 26.9354 16.0041 25.0919C16.5481 24.1636 17.0972 23.3308 17.5206 22.7251C17.7258 22.4156 17.9055 22.172 18.0235 21.9877C18.1415 21.8033 18.2005 21.6783 18.18 21.6355C18.162 21.5992 18.0543 21.6223 17.8747 21.698C17.695 21.7737 17.441 21.8955 17.1459 22.0832C16.5507 22.4453 15.7732 23.0444 15.0034 23.7752C13.451 25.2302 11.9218 27.156 11.3342 28.0777C10.7415 29.006 10.3258 29.9541 10.1154 30.731C9.90241 31.5079 9.89727 32.1201 10.1539 32.4Z" fill="url(#paint14_linear)"/>
<path d="M0.670333 22.5342C0.665201 23.0708 1.10397 23.5646 1.82755 23.9201C2.54857 24.2789 3.5621 24.4929 4.69109 24.4402C5.25302 24.4172 6.17161 24.269 7.22363 23.9892C8.27308 23.7094 9.45339 23.2814 10.5234 22.7383C11.5934 22.2017 12.5453 21.5565 13.1945 20.987C13.5229 20.7204 13.7718 20.4504 13.9411 20.2628C14.1079 20.0686 14.19 19.9369 14.1695 19.8809C14.1515 19.8315 14.0181 19.8315 13.8 19.871C13.5794 19.9073 13.2791 19.9928 12.9071 20.0653C12.1707 20.2397 11.1725 20.4175 10.118 20.513C8.00623 20.7237 5.64817 20.5195 4.58332 20.5591C2.46646 20.6512 0.67803 21.4512 0.670333 22.5342Z" fill="url(#paint15_linear)"/>
<path d="M17.772 15.9373C17.772 15.9373 18.2544 15.5784 19.0883 14.9628C19.9351 14.3407 21.1744 13.4782 22.7268 12.5071C24.292 11.5656 26.1702 10.5089 28.3102 9.56085C30.4501 8.61936 32.8467 7.78981 35.3997 7.22361C37.9528 6.6574 40.4212 6.44014 42.6664 6.51256C42.8075 6.51585 42.946 6.50926 43.0846 6.51584C43.2232 6.52572 43.3592 6.53889 43.4977 6.54876C43.7697 6.56851 44.0417 6.59156 44.3085 6.61131C44.5754 6.63765 44.8397 6.63764 45.0963 6.68044C45.3529 6.71994 45.6069 6.75945 45.8558 6.79566C46.3536 6.87466 46.8436 6.92405 47.2901 7.03926C47.5159 7.08206 47.7391 7.1446 47.9572 7.20714C48.1753 7.2664 48.3883 7.32565 48.5987 7.39478C49.4352 7.65155 50.1998 7.92478 50.8798 8.13546C51.2185 8.24409 51.5367 8.33626 51.8317 8.41198C52.1243 8.49428 52.3962 8.55024 52.64 8.59962C52.8863 8.65558 53.0942 8.67862 53.2687 8.74446C53.4431 8.80701 53.615 8.88272 53.7485 8.86626C53.8819 8.85639 53.9794 8.81359 54.041 8.78396C54.1026 8.75434 54.1359 8.74117 54.1359 8.74117C54.1359 8.74117 54.1026 8.74775 54.0384 8.76092C53.9743 8.77409 53.8768 8.79055 53.7562 8.76751C53.6279 8.74776 53.5073 8.65229 53.3302 8.54037C53.243 8.4844 53.1455 8.43502 53.0377 8.38893C52.9351 8.34285 52.8273 8.29347 52.7118 8.2408C52.4835 8.13875 52.2295 8.02682 51.9549 7.88527C51.6804 7.75031 51.3827 7.59558 51.0645 7.42111C50.4256 7.08205 49.7072 6.66728 48.8784 6.25579C48.6731 6.14716 48.4576 6.05169 48.2369 5.95293C48.0163 5.85088 47.7905 5.74883 47.5518 5.66324C47.0771 5.46244 46.5871 5.34064 46.0739 5.18592C45.8173 5.11021 45.5556 5.03779 45.2913 4.95878C45.027 4.87978 44.7524 4.84357 44.4753 4.78431C44.1982 4.73164 43.916 4.67567 43.6337 4.623C43.49 4.59667 43.3463 4.57033 43.2026 4.54071C43.0564 4.51766 42.9101 4.50779 42.7639 4.49133C40.4109 4.18189 37.7783 4.2609 35.0841 4.85674C32.3899 5.44928 29.901 6.47634 27.7405 7.66801C25.5801 8.86955 23.748 10.2324 22.2649 11.457C20.7947 12.7145 19.6708 13.8403 18.919 14.6501C18.1928 15.4698 17.772 15.9373 17.772 15.9373Z" fill="url(#paint16_linear)"/>
<path d="M8.79909 11.5458C8.445 11.8256 8.28078 12.4116 8.35263 13.0996C8.4219 13.7843 8.71698 14.5579 9.22246 15.1998C9.47392 15.5191 9.94091 15.9701 10.5413 16.3915C11.1392 16.8128 11.8756 17.2177 12.6556 17.3955C13.0431 17.4844 13.4434 17.5107 13.8129 17.4482C14.1823 17.3856 14.5159 17.2309 14.7494 17.0169C14.9855 16.8095 15.124 16.5791 15.1959 16.4079C15.2626 16.2269 15.2754 16.1149 15.2446 16.0689C15.1856 15.9767 14.8854 16.1314 14.5133 16.0656C14.1439 16.0129 13.7359 15.7232 13.3279 15.2755C12.9199 14.8311 12.5222 14.2484 12.1835 13.7152C11.8422 13.1852 11.56 12.7045 11.3573 12.4478C10.5439 11.4174 9.51241 10.9993 8.79909 11.5458Z" fill="url(#paint17_linear)"/>
<defs>
<linearGradient id="paint0_linear" x1="104.292" y1="29.0461" x2="111.709" y2="29.0461" gradientUnits="userSpaceOnUse">
<stop stop-color="#DAAC36"/>
<stop offset="1" stop-color="#F5F4A3"/>
</linearGradient>
<linearGradient id="paint1_linear" x1="98.8623" y1="32.2665" x2="104.79" y2="32.2665" gradientUnits="userSpaceOnUse">
<stop stop-color="#DAAC36"/>
<stop offset="1" stop-color="#F5F4A3"/>
</linearGradient>
<linearGradient id="paint2_linear" x1="91.7922" y1="29.0461" x2="99.2092" y2="29.0461" gradientUnits="userSpaceOnUse">
<stop stop-color="#DAAC36"/>
<stop offset="1" stop-color="#F5F4A3"/>
</linearGradient>
<linearGradient id="paint3_linear" x1="100.862" y1="19.6476" x2="102.787" y2="19.6476" gradientUnits="userSpaceOnUse">
<stop stop-color="#DAAC36"/>
<stop offset="1" stop-color="#F5F4A3"/>
</linearGradient>
<linearGradient id="paint4_linear" x1="102.948" y1="20.9115" x2="105.636" y2="20.9115" gradientUnits="userSpaceOnUse">
<stop stop-color="#DAAC36"/>
<stop offset="1" stop-color="#F5F4A3"/>
</linearGradient>
<linearGradient id="paint5_linear" x1="97.7463" y1="20.9116" x2="100.672" y2="20.9116" gradientUnits="userSpaceOnUse">
<stop stop-color="#DAAC36"/>
<stop offset="1" stop-color="#F5F4A3"/>
</linearGradient>
<linearGradient id="paint6_linear" x1="107.066" y1="27.0366" x2="185.888" y2="27.0366" gradientUnits="userSpaceOnUse">
<stop stop-color="#DAAC36"/>
<stop offset="1" stop-color="#F5F4A3"/>
</linearGradient>
<linearGradient id="paint7_linear" x1="122.761" y1="8.28017" x2="166.347" y2="8.28017" gradientUnits="userSpaceOnUse">
<stop stop-color="#DAAC36"/>
<stop offset="1" stop-color="#F5F4A3"/>
</linearGradient>
<linearGradient id="paint8_linear" x1="185.469" y1="27.0447" x2="193.692" y2="27.0447" gradientUnits="userSpaceOnUse">
<stop stop-color="#DAAC36"/>
<stop offset="1" stop-color="#F5F4A3"/>
</linearGradient>
<linearGradient id="paint9_linear" x1="189.477" y1="22.1137" x2="202.981" y2="22.1137" gradientUnits="userSpaceOnUse">
<stop stop-color="#DAAC36"/>
<stop offset="1" stop-color="#F5F4A3"/>
</linearGradient>
<linearGradient id="paint10_linear" x1="149.512" y1="10.094" x2="185.883" y2="10.094" gradientUnits="userSpaceOnUse">
<stop stop-color="#DAAC36"/>
<stop offset="1" stop-color="#F5F4A3"/>
</linearGradient>
<linearGradient id="paint11_linear" x1="188.391" y1="14.3471" x2="195.313" y2="14.3471" gradientUnits="userSpaceOnUse">
<stop stop-color="#DAAC36"/>
<stop offset="1" stop-color="#F5F4A3"/>
</linearGradient>
<linearGradient id="paint12_linear" x1="17.7747" y1="27.0629" x2="96.5908" y2="27.0629" gradientUnits="userSpaceOnUse">
<stop stop-color="#DAAC36"/>
<stop offset="1" stop-color="#F5F4A3"/>
</linearGradient>
<linearGradient id="paint13_linear" x1="37.3205" y1="8.28575" x2="80.8964" y2="8.28575" gradientUnits="userSpaceOnUse">
<stop stop-color="#DAAC36"/>
<stop offset="1" stop-color="#F5F4A3"/>
</linearGradient>
<linearGradient id="paint14_linear" x1="9.95858" y1="27.0739" x2="18.1853" y2="27.0739" gradientUnits="userSpaceOnUse">
<stop stop-color="#DAAC36"/>
<stop offset="1" stop-color="#F5F4A3"/>
</linearGradient>
<linearGradient id="paint15_linear" x1="0.670729" y1="22.1413" x2="14.1748" y2="22.1413" gradientUnits="userSpaceOnUse">
<stop stop-color="#DAAC36"/>
<stop offset="1" stop-color="#F5F4A3"/>
</linearGradient>
<linearGradient id="paint16_linear" x1="17.7732" y1="10.1155" x2="54.1417" y2="10.1155" gradientUnits="userSpaceOnUse">
<stop stop-color="#DAAC36"/>
<stop offset="1" stop-color="#F5F4A3"/>
</linearGradient>
<linearGradient id="paint17_linear" x1="8.33629" y1="14.3883" x2="15.2616" y2="14.3883" gradientUnits="userSpaceOnUse">
<stop stop-color="#DAAC36"/>
<stop offset="1" stop-color="#F5F4A3"/>
</linearGradient>
</defs>
</svg>
