<svg width="1340" height="668" viewBox="0 0 1340 668" fill="none" xmlns="http://www.w3.org/2000/svg">
<rect x="342" y="351" width="656" height="3" fill="#F2D97A"/>
<path d="M996 352.259C996 352.259 998.095 340.639 1012.73 352.259C1012.73 352.259 999.023 364.112 996 352.259ZM999.357 352.307C999.357 352.614 999.61 352.867 999.917 352.867C1000.22 352.867 1000.48 352.614 1000.48 352.307C1000.48 352 1000.22 351.748 999.917 351.748C999.603 351.755 999.357 352 999.357 352.307ZM1009.11 352.294C1009.11 352.294 1008.16 348.8 1001.48 352.294C1001.48 352.294 1007.74 355.855 1009.11 352.294Z" fill="#F2D97A"/>
<path d="M1013.82 353.849C1014.67 353.849 1015.36 353.16 1015.36 352.314C1015.36 351.468 1014.67 350.779 1013.82 350.779C1012.98 350.779 1012.29 351.468 1012.29 352.314C1012.28 353.16 1012.97 353.849 1013.82 353.849Z" fill="#F2D97A"/>
<path d="M1019.75 356.381C1019.75 356.381 1014.46 352.328 1014.51 352.307C1014.46 352.287 1019.75 348.234 1019.75 348.234C1020.37 349.564 1025.01 352.3 1025 352.307C1025.07 352.355 1020.37 355.057 1019.75 356.381Z" fill="#F2D97A"/>
<path d="M344 352.259C344 352.259 341.905 340.639 327.269 352.259C327.269 352.259 340.977 364.112 344 352.259ZM340.643 352.307C340.643 352.614 340.39 352.867 340.083 352.867C339.776 352.867 339.524 352.614 339.524 352.307C339.524 352 339.776 351.748 340.083 351.748C340.397 351.755 340.643 352 340.643 352.307ZM330.886 352.294C330.886 352.294 331.841 348.8 338.521 352.294C338.521 352.294 332.264 355.855 330.886 352.294Z" fill="#F2D97A"/>
<path d="M326.177 353.849C325.331 353.849 324.642 353.16 324.642 352.314C324.642 351.468 325.331 350.779 326.177 350.779C327.024 350.779 327.713 351.468 327.713 352.314C327.72 353.16 327.03 353.849 326.177 353.849Z" fill="#F2D97A"/>
<path d="M320.255 356.381C320.255 356.381 325.536 352.328 325.488 352.307C325.536 352.287 320.255 348.234 320.255 348.234C319.634 349.564 314.994 352.3 315.001 352.307C314.926 352.355 319.634 355.057 320.255 356.381Z" fill="#F2D97A"/>
</svg>
